<svg height="512" viewBox="0 0 60 41" width="512" xmlns="http://www.w3.org/2000/svg"><g id="025---Live-Recording" fill="none"><g id="Icons" transform="translate(1)"><path id="Shape" d="m42 23.89v12.11c-.0029837.224993-.0264134.4492491-.07.67-.0093102.0773122-.0226618.154084-.04.23 0 .02-.01.03-.01.04-.0767862.3015335-.1874924.5933953-.33.87-.0588603.127396-.1256583.2509723-.2.37-.05.08-.12.15-.17.23-.09.12-.18.23-.28.34-.07.07-.14.13-.21.19-.11.1-.22.2-.34.29-.08.05-.15.1-.23.15-.1312053.0830855-.2682268.1566092-.41.22-.0780525.0407749-.1581592.0774905-.24.11-.1583572.0650062-.3223898.1152203-.49.15-.0715971.0258944-.14517.0459597-.22.06-.2500472.0518447-.5046383.0786438-.76.08h-34c-.25536173-.0013562-.50995284-.0281553-.76-.08-.07483004-.0140403-.1484029-.0341056-.22-.06-.16761023-.0347797-.33164278-.0849938-.49-.15-.08184079-.0325095-.16194753-.0692251-.24-.11-.14177322-.0633908-.27879466-.1369145-.41-.22-.08-.05-.15-.1-.23-.15-.12-.09-.23-.19-.34-.29-.07-.06-.14-.12-.21-.19-.1-.11-.19-.22-.28-.34-.05-.08-.12-.15-.17-.23-.07434169-.1190277-.14113966-.242604-.2-.37-.14250761-.2766047-.25321379-.5684665-.33-.87 0-.01-.01-.02-.01-.04-.01733815-.075916-.03068976-.1526878-.04-.23-.04358658-.2207509-.06701632-.445007-.07-.67v-15c0-2.209139 1.790861-4 4-4h31.11c.3032066.0061853.5877277.1477594.7755214.3858896s.2591435.5478151.1944786.8441104c-.1271657.6371958-.0997326 1.2955916.08 1.92.3615426 1.2222671 1.2876976 2.1967756 2.49 2.62.0644244.0293042.1313627.0527326.2.07l.11.03c.5921656.1506464 1.2104209.1677252 1.81.05.2962953-.0646649.6059802.0066849.8441104.1944786s.3797043.4723148.3858896.7755214z" fill="#c81e1e"/><path id="Shape" d="m39 23.89v12.11c-.0029837.224993-.0264134.4492491-.07.67-.0093102.0773122-.0226618.154084-.04.23 0 .02-.01.03-.01.04-.0767862.3015335-.1874924.5933953-.33.87-.0588603.127396-.1256583.2509723-.2.37-.05.08-.12.15-.17.23-.09.12-.18.23-.28.34-.07.07-.14.13-.21.19-.11.1-.22.2-.34.29-.08.05-.15.1-.23.15-.1312053.0830855-.2682268.1566092-.41.22-.0780525.0407749-.1581592.0774905-.24.11-.1583572.0650062-.3223898.1152203-.49.15-.0715971.0258944-.14517.0459597-.22.06-.2500472.0518447-.5046383.0786438-.76.08h-31c-.25536173-.0013562-.50995284-.0281553-.76-.08-.07483004-.0140403-.1484029-.0341056-.22-.06-.16761023-.0347797-.33164278-.0849938-.49-.15-.08184079-.0325095-.16194753-.0692251-.24-.11-.14177322-.0633908-.27879466-.1369145-.41-.22-.08-.05-.15-.1-.23-.15-.12-.09-.23-.19-.34-.29-.07-.06-.14-.12-.21-.19-.1-.11-.19-.22-.28-.34-.05-.08-.12-.15-.17-.23-.07434169-.1190277-.14113966-.242604-.2-.37-.14250761-.2766047-.25321379-.5684665-.33-.87 0-.01-.01-.02-.01-.04-.01733815-.075916-.03068976-.1526878-.04-.23-.04358658-.2207509-.06701632-.445007-.07-.67v-15c0-2.209139 1.790861-4 4-4h31.11c.3032066.0061853.5877277.1477594.7755214.3858896s.2591435.5478151.1944786.8441104c-.1271657.6371958-.0997326 1.2955916.08 1.92.3615426 1.2222671 1.2876976 2.1967756 2.49 2.62.0644244.0293042.1313627.0527326.2.07l.11.03c.03.54.04.93.04 1.02z" fill="#f44335"/><path id="Shape" d="m29.337 9.94c3.3780934-3.989024 8.6979002-5.76260526 13.7939123-4.59878055 5.0960121 1.1638247 9.1184542 5.07098415 10.4299301 10.13100965 1.311476 5.0600255-.3067068 10.4291427-4.1958424 13.9217709-.7192978.6302836-.8945717 1.6802541-.419 2.51.3057731.5202378.8293978.8752824 1.4258605.9668072.5964627.0915249 1.2024503-.0901853 1.6501395-.4948072 5.0030014-4.4881465 7.0865489-11.3910607 5.4021687-17.8976992-1.6843803-6.50663857-6.8556791-11.53148318-13.4080112-13.02828852-6.5523321-1.49680535-13.392556.78414424-17.7351575 5.91398772-.3984483.46973804-.5589979 1.0964915-.4354584 1.69994232.1235396.60345081.5174706 1.11668998 1.0684584 1.39205768.8297972.4091282 1.831898.1957216 2.423-.516z" fill="#02a9f4"/><path id="Shape" d="m36.494 14.129c2.3969688-1.7184461 5.6874269-1.440015 7.7615598.6567657 2.074133 2.0967807 2.3168149 5.3900683.5724402 7.7682343-.4550265.6330904-.4903941 1.4760178-.09 2.145v.005c.335853.5772325.9376578.9487446 1.604191.990315.6665332.0415705 1.3098358-.2522865 1.714809-.783315 2.8900116-3.9630223 2.4791408-9.4371247-.970065-12.9243431-3.4492059-3.48721839-8.9184763-3.9580604-12.912935-1.1116569-.5513071.4163884-.8470492 1.089036-.7811912 1.7767725.065858.6877366.4838808 1.2920337 1.1041912 1.5962275.6359777.3348947 1.405294.2890516 1.997-.119z" fill="#0377bc"/><circle id="Oval" cx="40" cy="19" fill="#3f51b5" r="2"/></g><g id="Layer_10" fill="#000"><path id="Shape" d="m14 22v13c0 .5522847.4477153 1 1 1s1-.4477153 1-1v-13c0-.5522847-.4477153-1-1-1s-1 .4477153-1 1z"/><path id="Shape" d="m25.025 21.775-2.525 10.944-2.525-10.944c-.0803848-.348334-.3404973-.627323-.6823557-.7318748-.3418584-.1045517-.7135263-.0187822-.975.225s-.3730291.6085408-.2926443.9568748l3 13c.1048143.4538972.5091582.7752987.975.775h1c.4658418.0002987.8701857-.3211028.975-.775l3-13c.1242641-.5384776-.2115224-1.0757359-.75-1.2s-1.0757359.2115224-1.2.75z"/><path id="Shape" d="m6 21c-.55228475 0-1 .4477153-1 1v13c0 .5522847.44771525 1 1 1h5c.5522847 0 1-.4477153 1-1s-.4477153-1-1-1h-4v-12c0-.5522847-.44771525-1-1-1z"/><path id="Shape" d="m35 23c.5522847 0 1-.4477153 1-1s-.4477153-1-1-1h-5c-.5522847 0-1 .4477153-1 1v13c0 .5522847.4477153 1 1 1h5c.5522847 0 1-.4477153 1-1s-.4477153-1-1-1h-4v-4h4c.5522847 0 1-.4477153 1-1s-.4477153-1-1-1h-4v-5z"/><path id="Shape" d="m5 41h34c2.3275238.0042838 4.3474508-1.6045149 4.864-3.874.188-.81.136-.126.136-12.476 0-.5522847-.4477153-1-1-1s-1 .4477153-1 1c0 12.393.036 11.509-.084 12.023-.3085547 1.3619313-1.5195541 2.3283221-2.916 2.327h-34c-1.65685425 0-3-1.3431458-3-3v-15c0-1.6568542 1.34314575-3 3-3h30.35c.5522847 0 1-.4477153 1-1s-.4477153-1-1-1h-30.35c-2.76005315.0033061-4.99669388 2.2399468-5 5v15c.00330612 2.7600532 2.23994685 4.9966939 5 5z"/><path id="Shape" d="m51.206 33.857c.8963427.1422048 1.8089398-.1283032 2.483-.736 4.4883696-3.9970326 6.802707-9.8941176 6.231-15.877-.7038385-7.61539566-5.9072645-14.06542861-13.2014624-16.36419288-7.2941978-2.29876428-15.255558.00239025-20.1985376 5.83819288-.7332242.81314529-.9652182 1.96116587-.6052794 2.99521952.3599389 1.03405368 1.2546372 1.78988918 2.3342944 1.97199718 1.0796571.182108 2.1727782-.2384379 2.851985-1.0972167 3.1383703-3.69637301 8.0740169-5.33741444 12.800896-4.25613953s8.4582329 4.70489513 9.6774902 9.39807663c1.2192573 4.6931816-.2765192 9.6747754-3.8793862 12.9200629-.8731507.7654224-1.2248005 1.9667932-.902189 3.0822238.3226116 1.1154305 1.2612612 1.9436132 2.408189 2.1247762zm-.172-3.72c4.1617291-3.743367 5.891426-9.4934317 4.4856075-14.9115919-1.4058185-5.41816021-5.7129759-9.60187754-11.1697132-10.84959702s-11.15409.64839965-14.7748943 4.91718892c-.243972.29572945-.6355409.42594555-1.0080286.33521957-.3724877-.09072599-.6603181-.38642187-.7409714-.76121957-.0630494-.30399211.017357-.62008483.218-.857 4.4217165-5.22208764 11.5446092-7.28197338 18.0710799-5.22601718 6.5264707 2.05595621 11.1826486 7.82646208 11.8129201 14.64001718.512372 5.3536597-1.5579639 10.6308991-5.574 14.208-.2618316.2687877-.652101.3683745-1.0107089.2579071-.3586078-.1104674-.6251927-.4123949-.690394-.7819236-.0652014-.3695286.0819555-.7444587.3811029-.9709835z"/><path id="Shape" d="m44.874 25.2c.5044544.8702015 1.4114355 1.4296902 2.4154694 1.4900288s1.9714916-.3865036 2.5765306-1.1900288c3.1810956-4.3599508 2.7291776-10.383777-1.0668313-14.2202932-3.7960089-3.83651621-9.814699-4.35234623-14.2081687-1.2177068-.836405.6206547-1.2894203 1.6319424-1.1957136 2.6692489.0937067 1.0373064.7206214 1.951037 1.6547136 2.4117511.9681761.5056794 2.1376633.428511 3.031-.2 1.9972518-1.4282178 4.7359787-1.1948822 6.4628338.5506241s1.9307568 4.4865818.4811662 6.4683759c-.6929827.9521412-.7523641 2.2254986-.151 3.238zm-3.057-13.154c-1.7382233-.2017757-3.4891694.2525431-4.91 1.274-.3018132.1777518-.6740828.1867972-.9841729.0239134-.31009-.1628837-.5139047-.4745342-.5388271-.8239134-.031052-.3228049.1112706-.6378935.374-.828 3.5930469-2.58476536 8.5325372-2.17146426 11.6460811.9744605 3.1135439 3.1459247 3.4757193 8.0894267.8539189 11.6555395-.2054477.263132-.5286521.4063891-.8615891.3818908-.3329369-.0244984-.6316914-.213521-.7964109-.5038908-.1973896-.3238941-.1860323-.7335402.029-1.046 1.4808972-2.0069047 1.7820911-4.650176.7906579-6.9387963-.9914333-2.2886203-3.1257149-3.8768406-5.6026579-4.1692037z"/><path id="Shape" d="m38 19c0 1.6568542 1.3431458 3 3 3s3-1.3431458 3-3-1.3431458-3-3-3-3 1.3431458-3 3zm4 0c0 .5522847-.4477153 1-1 1s-1-.4477153-1-1 .4477153-1 1-1 1 .4477153 1 1z"/></g></g></svg>