<svg id="Layer_1" data-name="Layer 1" xmlns="http://www.w3.org/2000/svg" viewBox="0 0 462.4 188.88"><defs><style>.cls-1{fill:#f2f2f0;}.cls-2,.cls-3,.cls-58,.cls-7{fill:none;stroke-miterlimit:10;}.cls-2,.cls-3,.cls-7{stroke:#afafa3;}.cls-3{stroke-width:0.25px;}.cls-4{fill:#dbd98d;}.cls-5{fill:#f7f7f0;}.cls-6{fill:#8dd8ae;}.cls-7{stroke-width:3px;}.cls-8{fill:#7c626d;}.cls-9{fill:#414042;}.cls-10{fill:#efefe1;}.cls-11{fill:#d7df23;}.cls-12{fill:#c1ad1a;}.cls-13{fill:#d3d2bc;}.cls-14{fill:#5e4a56;}.cls-15,.cls-56{fill:#f1f2f2;}.cls-16{fill:#808285;}.cls-17{fill:#fcfcf2;}.cls-18{fill:#bcbec0;}.cls-19{fill:#e6e7e8;}.cls-20{fill:#dbdbcc;}.cls-21{fill:#a8a698;}.cls-22{fill:#8b4b1a;}.cls-23{fill:#e0b07c;}.cls-24{fill:#eae9d3;}.cls-25{fill:#7a7169;}.cls-26{fill:#9e9186;}.cls-27{fill:#eaeae1;}.cls-28{fill:#e2e2d3;}.cls-29{fill:#254080;}.cls-30{fill:#2a478c;}.cls-31{fill:#3c5797;}.cls-32{fill:#6176a8;}.cls-33{fill:#8495bc;}.cls-34{fill:#885b0d;}.cls-35{fill:#d89520;}.cls-36{fill:#f3a621;}.cls-37{fill:#f5ae33;}.cls-38{fill:#f7d7a1;}.cls-39{fill:#b30234;}.cls-40{fill:#e20644;}.cls-41{fill:#ee376b;}.cls-42{fill:#f06089;}.cls-43{fill:#f384a3;}.cls-44{fill:#f2f2f1;}.cls-45{fill:#4d6600;}.cls-46{fill:#628200;}.cls-47{fill:#82a600;}.cls-48{fill:#85b100;}.cls-49{fill:#b7cb79;}.cls-50,.cls-57{font-size:12px;font-family:MyriadPro-Regular, Myriad Pro;}.cls-51{letter-spacing:-0.05em;}.cls-52{letter-spacing:-0.01em;}.cls-53{letter-spacing:0em;}.cls-54{letter-spacing:-0.03em;}.cls-55{letter-spacing:0em;}.cls-56{opacity:0.5;}.cls-57{letter-spacing:0.01em;}.cls-58{stroke:#be1e2d;}</style></defs><title>background</title><rect class="cls-1" x="49.83" y="83.12" width="71.67" height="105.27" transform="matrix(0.97, -0.26, 0.26, 0.97, -45.54, 19.8)"/><path class="cls-2" d="M61.6,165,121.1,149Z" transform="translate(-13.32 -7)"/><path class="cls-2" d="M62.15,167l59.49-15.94Z" transform="translate(-13.32 -7)"/><path class="cls-2" d="M62.69,169l59.5-15.94Z" transform="translate(-13.32 -7)"/><path class="cls-2" d="M63.23,171l59.5-15.94Z" transform="translate(-13.32 -7)"/><path class="cls-2" d="M63.78,173.07l59.49-15.94Z" transform="translate(-13.32 -7)"/><path class="cls-2" d="M64.32,175.1l59.5-15.94Z" transform="translate(-13.32 -7)"/><path class="cls-2" d="M64.86,177.13l59.5-15.94Z" transform="translate(-13.32 -7)"/><path class="cls-2" d="M65.41,179.16l59.49-15.94Z" transform="translate(-13.32 -7)"/><path class="cls-2" d="M66,181.19l59.5-15.95Z" transform="translate(-13.32 -7)"/><path class="cls-2" d="M66.49,183.22,126,167.27Z" transform="translate(-13.32 -7)"/><rect class="cls-3" x="53.19" y="103.54" width="61.03" height="49.84" transform="translate(-43.72 19.05) rotate(-15)"/><rect class="cls-4" x="80.98" y="123.95" width="5.46" height="27.93" transform="translate(-46.18 19.38) rotate(-15.01)"/><rect class="cls-4" x="91.73" y="117.87" width="5.46" height="31.08" transform="matrix(0.97, -0.26, 0.26, 0.97, -44.63, 21.99)"/><rect class="cls-4" x="102.07" y="108.69" width="5.46" height="37.38" transform="translate(-42.72 24.47) rotate(-15)"/><rect class="cls-5" x="67.13" y="50.37" width="71.67" height="105.27" transform="translate(-36.47 23.16) rotate(-15)"/><path class="cls-2" d="M64.23,77.44l59.5-15.94Z" transform="translate(-13.32 -7)"/><path class="cls-2" d="M64.78,79.47l59.49-15.94Z" transform="translate(-13.32 -7)"/><path class="cls-2" d="M65.32,81.5l59.5-16Z" transform="translate(-13.32 -7)"/><path class="cls-2" d="M65.86,83.53l59.5-16Z" transform="translate(-13.32 -7)"/><path class="cls-2" d="M66.41,85.55,125.9,69.61Z" transform="translate(-13.32 -7)"/><path class="cls-2" d="M67,87.58l59.5-15.94Z" transform="translate(-13.32 -7)"/><path class="cls-2" d="M67.5,89.61,127,73.67Z" transform="translate(-13.32 -7)"/><path class="cls-2" d="M68,91.64l59.5-15.94Z" transform="translate(-13.32 -7)"/><path class="cls-2" d="M68.58,93.67l59.5-16Z" transform="translate(-13.32 -7)"/><path class="cls-2" d="M69.12,95.69l59.5-15.94Z" transform="translate(-13.32 -7)"/><path class="cls-2" d="M69.67,97.72l59.5-15.94Z" transform="translate(-13.32 -7)"/><path class="cls-2" d="M70.21,99.75l59.5-15.94Z" transform="translate(-13.32 -7)"/><path class="cls-2" d="M70.76,101.78l59.49-15.94Z" transform="translate(-13.32 -7)"/><path class="cls-2" d="M71.3,103.81l59.5-15.94Z" transform="translate(-13.32 -7)"/><path class="cls-2" d="M71.84,105.84l59.5-16Z" transform="translate(-13.32 -7)"/><path class="cls-2" d="M72.39,107.86l59.49-15.94Z" transform="translate(-13.32 -7)"/><path class="cls-2" d="M72.93,109.89,132.43,94Z" transform="translate(-13.32 -7)"/><path class="cls-2" d="M73.47,111.92,133,96Z" transform="translate(-13.32 -7)"/><path class="cls-2" d="M74,114,133.51,98Z" transform="translate(-13.32 -7)"/><path class="cls-2" d="M74.56,116,134.06,100Z" transform="translate(-13.32 -7)"/><path class="cls-2" d="M75.1,118l59.5-16Z" transform="translate(-13.32 -7)"/><path class="cls-2" d="M75.65,120l59.49-15.94Z" transform="translate(-13.32 -7)"/><path class="cls-2" d="M76.19,122.06l59.5-15.94Z" transform="translate(-13.32 -7)"/><path class="cls-2" d="M76.73,124.09l59.5-15.94Z" transform="translate(-13.32 -7)"/><path class="cls-2" d="M77.28,126.12l59.49-15.94Z" transform="translate(-13.32 -7)"/><path class="cls-2" d="M78.91,132.2l59.49-15.94Z" transform="translate(-13.32 -7)"/><path class="cls-2" d="M79.45,134.23,139,118.29Z" transform="translate(-13.32 -7)"/><path class="cls-2" d="M80,136.26l59.5-15.94Z" transform="translate(-13.32 -7)"/><path class="cls-2" d="M80.54,138.29,140,122.35Z" transform="translate(-13.32 -7)"/><path class="cls-2" d="M81.08,140.32l59.5-15.94Z" transform="translate(-13.32 -7)"/><path class="cls-2" d="M81.62,142.35l59.5-15.95Z" transform="translate(-13.32 -7)"/><path class="cls-2" d="M82.17,144.37l59.5-15.94Z" transform="translate(-13.32 -7)"/><path class="cls-2" d="M82.71,146.4l59.5-15.94Z" transform="translate(-13.32 -7)"/><path class="cls-2" d="M83.26,148.43l59.49-15.94Z" transform="translate(-13.32 -7)"/><path class="cls-2" d="M83.8,150.46l59.5-15.94Z" transform="translate(-13.32 -7)"/><rect class="cls-5" x="120.57" y="82.14" width="71.68" height="105.27" transform="translate(-42.87 38.08) rotate(-15)"/><path class="cls-2" d="M129.09,151.8l59.49-15.94Z" transform="translate(-13.32 -7)"/><path class="cls-2" d="M129.63,153.83l59.5-15.94Z" transform="translate(-13.32 -7)"/><path class="cls-2" d="M130.17,155.86l59.5-15.94Z" transform="translate(-13.32 -7)"/><path class="cls-2" d="M130.72,157.89l59.49-15.95Z" transform="translate(-13.32 -7)"/><path class="cls-2" d="M131.26,159.92,190.76,144Z" transform="translate(-13.32 -7)"/><path class="cls-2" d="M131.81,161.94,191.3,146Z" transform="translate(-13.32 -7)"/><path class="cls-2" d="M132.35,164,191.85,148Z" transform="translate(-13.32 -7)"/><path class="cls-2" d="M132.89,166l59.5-15.94Z" transform="translate(-13.32 -7)"/><path class="cls-2" d="M133.44,168l59.49-15.94Z" transform="translate(-13.32 -7)"/><path class="cls-2" d="M134,170.06l59.5-15.95Z" transform="translate(-13.32 -7)"/><rect class="cls-3" x="122.38" y="102.76" width="61.04" height="37.8" transform="translate(-39.6 36.72) rotate(-15)"/><polygon class="cls-3" points="108.47 116.47 117.39 121.62 121.94 113.73 140.97 124.72 148.99 110.83 153.62 113.5 161.93 99.1 166.67 97.83 108.47 116.47"/><path class="cls-6" d="M132.22,127.78a1.54,1.54,0,1,1-1.89-1.09A1.54,1.54,0,0,1,132.22,127.78Z" transform="translate(-13.32 -7)"/><path class="cls-6" d="M136.82,120.6a1.54,1.54,0,1,1-1.89-1.09A1.55,1.55,0,0,1,136.82,120.6Z" transform="translate(-13.32 -7)"/><path class="cls-6" d="M155.8,130.88a1.54,1.54,0,1,1-1.88-1.09A1.53,1.53,0,0,1,155.8,130.88Z" transform="translate(-13.32 -7)"/><path class="cls-6" d="M163.87,117.7a1.54,1.54,0,1,1-1.89-1.09A1.55,1.55,0,0,1,163.87,117.7Z" transform="translate(-13.32 -7)"/><path class="cls-6" d="M168.25,120a1.54,1.54,0,1,1-1.88-1.09A1.53,1.53,0,0,1,168.25,120Z" transform="translate(-13.32 -7)"/><path class="cls-6" d="M176.64,105.87a1.54,1.54,0,1,1-1.89-1.08A1.54,1.54,0,0,1,176.64,105.87Z" transform="translate(-13.32 -7)"/><path class="cls-7" d="M19.63,127.07l54.5-14.6Z" transform="translate(-13.32 -7)"/><path class="cls-2" d="M19,134.77l59.49-15.94Z" transform="translate(-13.32 -7)"/><rect class="cls-8" x="209.54" y="21.84" width="81.75" height="34.16" rx="4.2"/><rect class="cls-9" x="209.54" y="20.16" width="81.75" height="34.16" rx="4.2"/><path class="cls-10" d="M432.36,35.56c-28.54-10.88-93.92-18.48-170-18.48s-141.48,7.6-170,18.48Z" transform="translate(-13.32 -7)"/><rect class="cls-11" x="256.58" y="47.88" width="14.42" height="14.42"/><polygon class="cls-11" points="287.69 62.3 276.6 62.3 276.6 47.88 291.02 47.88 291.02 59.2 287.69 62.3"/><polygon class="cls-12" points="287.69 59.2 291.02 59.2 287.69 62.3 287.69 59.2"/><path class="cls-8" d="M92.33,35.56a3.52,3.52,0,0,0-.64,2c0,.07,0,.14,0,.21H432.83c0-.07,0-.14,0-.21a3.52,3.52,0,0,0-.64-2Z" transform="translate(-13.32 -7)"/><path class="cls-13" d="M262.34,17.08c-9,0-17.87.11-26.53.31l-3.52,1.32s10,9.59,54.3,16.85H432.36C403.82,24.68,338.44,17.08,262.34,17.08Z" transform="translate(-13.32 -7)"/><path class="cls-10" d="M290.16,17.42l-2.06,1.9a967.81,967.81,0,0,1,131.82,12.3C391.88,24.13,345,18.79,290.16,17.42Z" transform="translate(-13.32 -7)"/><path class="cls-9" d="M296.19,19.32a3.22,3.22,0,0,0-.16-.61q-1.68-4.46-3.37-8.9a4.42,4.42,0,0,0-4.49-2.71,4.53,4.53,0,0,0-.91-.1H241.34a4.17,4.17,0,0,0-.94.11,4.46,4.46,0,0,0-4.74,2.7q-1.68,4.45-3.37,8.9a4.21,4.21,0,0,0-.16.61Z" transform="translate(-13.32 -7)"/><path class="cls-14" d="M292.66,9.81a4.42,4.42,0,0,0-4.49-2.71,4.53,4.53,0,0,0-.91-.1H251.9c7.72.59,18.6,1.85,26.33,4.55a56.83,56.83,0,0,1,15.34,7.77h2.62a3.22,3.22,0,0,0-.16-.61Q294.35,14.26,292.66,9.81Z" transform="translate(-13.32 -7)"/><rect class="cls-14" x="337.62" y="105.59" width="6.09" height="15.12"/><rect class="cls-15" x="337.96" y="115.18" width="5.32" height="5.53"/><rect class="cls-16" x="338.52" y="117.42" width="1.12" height="1.12"/><rect class="cls-16" x="341.53" y="117.42" width="1.12" height="1.12"/><rect class="cls-8" x="339.01" y="104.89" width="3.29" height="3.29"/><rect class="cls-15" x="323.07" y="58.1" width="53.9" height="26.18" rx="4.2"/><path class="cls-17" d="M386.09,65.09H340.6a4.21,4.21,0,0,0-4.2,4.2V87.07a4.17,4.17,0,0,0,1.33,3.06,4.14,4.14,0,0,1-1.05-2.73V69.81a4.15,4.15,0,0,1,4.16-4.15h45A4.15,4.15,0,0,1,390,69.81V87.4a4.13,4.13,0,0,1-1,2.73,4.21,4.21,0,0,0,1.33-3.06V69.29A4.21,4.21,0,0,0,386.09,65.09Z" transform="translate(-13.32 -7)"/><rect class="cls-14" x="328.53" y="59.5" width="41.3" height="23.38"/><path class="cls-18" d="M339.34,81.26a.35.35,0,0,1-.35.35h0a.34.34,0,0,1-.35-.35v-7.7a.35.35,0,0,1,.35-.35h0a.35.35,0,0,1,.35.35Z" transform="translate(-13.32 -7)"/><path class="cls-18" d="M339.9,69.36a.91.91,0,1,1-.91-.91A.91.91,0,0,1,339.9,69.36Z" transform="translate(-13.32 -7)"/><path class="cls-18" d="M386.79,80.42A2.45,2.45,0,1,1,389.24,78,2.45,2.45,0,0,1,386.79,80.42Zm0-4.48a2,2,0,1,0,2,2A2,2,0,0,0,386.79,75.94Z" transform="translate(-13.32 -7)"/><polygon class="cls-8" points="365.63 82.87 369.83 82.87 369.83 59.5 331.91 59.5 365.63 82.87"/><circle class="cls-19" cx="27.55" cy="133.6" r="27.55"/><path class="cls-20" d="M25.93,155.54a21.12,21.12,0,0,1-2.16-27.32c-2.72.95-5.8,1.8-8.62,2.5a27.56,27.56,0,0,0,32.22,36.66c1.85-1.69,4-4.6,5.67-9.53A21.12,21.12,0,0,1,25.93,155.54Z" transform="translate(-13.32 -7)"/><path class="cls-15" d="M60.36,121.12a27.56,27.56,0,0,0-39,0c-.06,0-.11.12-.17.18a27.54,27.54,0,0,1,39,39l.19-.17A27.55,27.55,0,0,0,60.36,121.12Z" transform="translate(-13.32 -7)"/><path class="cls-18" d="M55.82,155.54a21.13,21.13,0,0,1-31.61-27.92,21.13,21.13,0,0,0,31.14,28.51,22.53,22.53,0,0,0,1.71-2C56.67,154.63,56.26,155.1,55.82,155.54Z" transform="translate(-13.32 -7)"/><path class="cls-20" d="M55.82,155.54a21.13,21.13,0,1,1,0-29.88A21.14,21.14,0,0,1,55.82,155.54Z" transform="translate(-13.32 -7)"/><path class="cls-21" d="M53.68,157.38c6.6-8.81,7.33-20.17,1-27.66-7-8.35-20.31-8.92-30.78-1.74a21.11,21.11,0,0,0,29.73,29.4Z" transform="translate(-13.32 -7)"/><circle class="cls-15" cx="27.55" cy="133.6" r="18.16"/><path class="cls-22" d="M52.3,152a16.16,16.16,0,1,1,0-22.86A16.17,16.17,0,0,1,52.3,152Z" transform="translate(-13.32 -7)"/><path class="cls-15" d="M21.28,161.46a1.62,1.62,0,0,1-2.32,0h0a1.62,1.62,0,0,1,0-2.32l7.63-7.64a1.65,1.65,0,0,1,2.33,0h0a1.65,1.65,0,0,1,0,2.33Z" transform="translate(-13.32 -7)"/><path class="cls-23" d="M52.3,129.17a16.16,16.16,0,1,0,0,22.86A16.17,16.17,0,0,0,52.3,129.17ZM41,153.83c-4.48-2.66-8.72-.59-12.12-4.15s-.92-8.06-.5-13.45,2.32-3.82,5.65-7.48,7.14-2.65,9.79-2c0,0,1.41,1.58,4,4s4-.83,6.22,2.57,3,4.32.42,7.56S54.32,146.19,52,150,45.52,156.48,41,153.83Z" transform="translate(-13.32 -7)"/><rect class="cls-24" x="293.19" y="94.9" width="29.82" height="47.56"/><rect class="cls-17" x="293.19" y="94.13" width="29.82" height="47.56"/><polygon class="cls-24" points="293.19 96.2 323.01 117.05 323.01 94.13 293.19 94.13 293.19 96.2"/><rect class="cls-25" x="295.19" y="96.44" width="25.41" height="6.3"/><rect class="cls-26" x="295.19" y="104.6" width="4.28" height="0.83"/><rect class="cls-26" x="302.23" y="104.6" width="4.28" height="0.83"/><rect class="cls-26" x="309.27" y="104.6" width="4.27" height="0.83"/><rect class="cls-26" x="316.32" y="104.6" width="4.28" height="0.83"/><rect class="cls-13" x="295.19" y="113.56" width="5.77" height="5.77"/><rect class="cls-13" x="301.7" y="113.56" width="5.77" height="5.77"/><rect class="cls-13" x="308.2" y="113.56" width="5.77" height="5.77"/><rect class="cls-13" x="314.72" y="113.56" width="5.77" height="5.77"/><rect class="cls-13" x="295.19" y="107.15" width="5.77" height="5.77"/><rect class="cls-13" x="301.7" y="107.15" width="5.77" height="5.77"/><rect class="cls-13" x="308.2" y="107.15" width="5.77" height="5.77"/><rect class="cls-13" x="314.72" y="107.15" width="5.77" height="5.77"/><rect class="cls-13" x="295.19" y="120.17" width="5.77" height="5.77"/><rect class="cls-13" x="301.7" y="120.17" width="5.77" height="5.77"/><rect class="cls-13" x="308.2" y="120.17" width="5.77" height="5.77"/><rect class="cls-13" x="314.72" y="120.17" width="5.77" height="5.77"/><rect class="cls-13" x="295.19" y="126.79" width="5.77" height="5.77"/><rect class="cls-13" x="301.7" y="126.79" width="5.77" height="5.77"/><rect class="cls-13" x="308.2" y="126.79" width="5.77" height="5.77"/><rect class="cls-13" x="314.72" y="126.79" width="5.77" height="12.39"/><rect class="cls-13" x="295.19" y="133.4" width="5.77" height="5.77"/><rect class="cls-13" x="301.7" y="133.4" width="5.77" height="5.77"/><rect class="cls-13" x="308.2" y="133.4" width="5.77" height="5.77"/><rect class="cls-21" x="155.17" y="95.43" width="121.92" height="4.18" rx="1.97"/><path class="cls-13" d="M289.67,153.56V104.89a3,3,0,0,0-2.95-3H172.18a3,3,0,0,0-3,3v48.67Z" transform="translate(-13.32 -7)"/><path class="cls-24" d="M272,153.56h17.64V104.89a3,3,0,0,0-2.95-3H198.08Z" transform="translate(-13.32 -7)"/><rect class="cls-17" x="159.41" y="127.59" width="14.24" height="5.76"/><rect class="cls-17" x="159.41" y="135.15" width="5.76" height="5.76"/><rect class="cls-17" x="166.45" y="135.15" width="5.76" height="5.76"/><rect class="cls-17" x="173.49" y="135.15" width="5.76" height="5.76"/><rect class="cls-17" x="180.53" y="135.15" width="5.76" height="5.76"/><rect class="cls-17" x="230.93" y="135.15" width="5.76" height="5.76"/><rect class="cls-17" x="237.89" y="135.15" width="5.76" height="5.76"/><rect class="cls-17" x="244.85" y="135.15" width="5.76" height="5.76"/><rect class="cls-17" x="251.81" y="135.15" width="5.76" height="5.76"/><rect class="cls-17" x="259.01" y="135.15" width="5.76" height="5.76"/><rect class="cls-17" x="266.2" y="135.15" width="6.96" height="5.76"/><rect class="cls-17" x="187.57" y="135.15" width="42.16" height="5.76"/><rect class="cls-17" x="159.41" y="100.43" width="5.76" height="3.76"/><rect class="cls-17" x="166.49" y="100.43" width="5.76" height="3.76"/><rect class="cls-17" x="173.57" y="100.43" width="5.76" height="3.76"/><rect class="cls-17" x="180.65" y="100.43" width="5.76" height="3.76"/><rect class="cls-17" x="188.45" y="100.43" width="5.76" height="3.76"/><rect class="cls-17" x="195.53" y="100.43" width="5.76" height="3.76"/><rect class="cls-17" x="202.61" y="100.43" width="5.76" height="3.76"/><rect class="cls-17" x="209.69" y="100.43" width="5.76" height="3.76"/><rect class="cls-17" x="217.25" y="100.43" width="5.76" height="3.76"/><rect class="cls-17" x="224.33" y="100.43" width="5.76" height="3.76"/><rect class="cls-17" x="231.41" y="100.43" width="5.76" height="3.76"/><rect class="cls-17" x="238.49" y="100.43" width="5.76" height="3.76"/><rect class="cls-17" x="246.11" y="100.53" width="5.76" height="3.76"/><rect class="cls-17" x="253.19" y="100.53" width="5.76" height="3.76"/><rect class="cls-17" x="260.27" y="100.53" width="5.76" height="3.76"/><rect class="cls-17" x="267.35" y="100.53" width="5.76" height="3.76"/><rect class="cls-17" x="159.41" y="120.03" width="11.04" height="5.76"/><rect class="cls-17" x="171.87" y="120.03" width="5.76" height="5.76"/><rect class="cls-17" x="175.23" y="127.59" width="5.76" height="5.76"/><rect class="cls-17" x="182.19" y="127.59" width="5.76" height="5.76"/><rect class="cls-17" x="189.15" y="127.59" width="5.76" height="5.76"/><rect class="cls-17" x="196.11" y="127.59" width="5.76" height="5.76"/><rect class="cls-17" x="203.07" y="127.59" width="5.76" height="5.76"/><rect class="cls-17" x="210.03" y="127.59" width="5.76" height="5.76"/><rect class="cls-17" x="216.99" y="127.59" width="5.76" height="5.76"/><rect class="cls-17" x="223.95" y="127.59" width="5.76" height="5.76"/><rect class="cls-17" x="230.91" y="127.59" width="5.76" height="5.76"/><rect class="cls-17" x="237.87" y="127.59" width="5.76" height="5.76"/><rect class="cls-17" x="244.83" y="127.59" width="5.76" height="5.76"/><rect class="cls-17" x="251.79" y="127.59" width="21.36" height="5.76"/><rect class="cls-17" x="178.83" y="120.03" width="5.76" height="5.76"/><rect class="cls-17" x="185.79" y="120.03" width="5.76" height="5.76"/><rect class="cls-17" x="192.75" y="120.03" width="5.76" height="5.76"/><rect class="cls-17" x="199.71" y="120.03" width="5.76" height="5.76"/><rect class="cls-17" x="206.67" y="120.03" width="5.76" height="5.76"/><rect class="cls-17" x="213.63" y="120.03" width="5.76" height="5.76"/><rect class="cls-17" x="220.59" y="120.03" width="5.76" height="5.76"/><rect class="cls-17" x="227.55" y="120.03" width="5.76" height="5.76"/><rect class="cls-17" x="234.51" y="120.03" width="5.76" height="5.76"/><rect class="cls-17" x="241.47" y="120.03" width="5.76" height="5.76"/><rect class="cls-17" x="248.43" y="120.03" width="5.76" height="5.76"/><rect class="cls-17" x="255.39" y="120.03" width="17.76" height="5.76"/><rect class="cls-17" x="159.41" y="112.47" width="9.28" height="5.76"/><rect class="cls-17" x="170.13" y="112.47" width="5.76" height="5.76"/><rect class="cls-17" x="177.33" y="112.47" width="5.76" height="5.76"/><rect class="cls-17" x="184.53" y="112.47" width="5.76" height="5.76"/><rect class="cls-17" x="191.73" y="112.47" width="5.76" height="5.76"/><rect class="cls-17" x="198.93" y="112.47" width="5.76" height="5.76"/><rect class="cls-17" x="206.13" y="112.47" width="5.76" height="5.76"/><rect class="cls-17" x="213.33" y="112.47" width="5.76" height="5.76"/><rect class="cls-17" x="220.53" y="112.47" width="5.76" height="5.76"/><rect class="cls-17" x="227.73" y="112.47" width="5.76" height="5.76"/><rect class="cls-17" x="234.93" y="112.47" width="5.76" height="5.76"/><rect class="cls-17" x="242.12" y="112.47" width="5.76" height="5.76"/><rect class="cls-17" x="249.32" y="112.47" width="5.76" height="5.76"/><rect class="cls-17" x="256.52" y="112.47" width="5.76" height="5.76"/><rect class="cls-17" x="263.72" y="112.47" width="9.44" height="5.76"/><rect class="cls-17" x="253.01" y="105.45" width="12.8" height="5.76"/><rect class="cls-17" x="159.41" y="105.45" width="5.76" height="5.76"/><rect class="cls-17" x="166.61" y="105.45" width="5.76" height="5.76"/><rect class="cls-17" x="173.81" y="105.45" width="5.76" height="5.76"/><rect class="cls-17" x="181.01" y="105.45" width="5.76" height="5.76"/><rect class="cls-17" x="188.21" y="105.45" width="5.76" height="5.76"/><rect class="cls-17" x="195.41" y="105.45" width="5.76" height="5.76"/><rect class="cls-17" x="202.61" y="105.45" width="5.76" height="5.76"/><rect class="cls-17" x="209.81" y="105.45" width="5.76" height="5.76"/><rect class="cls-17" x="217.01" y="105.45" width="5.76" height="5.76"/><rect class="cls-17" x="224.21" y="105.45" width="5.76" height="5.76"/><rect class="cls-17" x="231.41" y="105.45" width="5.76" height="5.76"/><rect class="cls-17" x="238.61" y="105.45" width="5.76" height="5.76"/><rect class="cls-17" x="245.81" y="105.45" width="5.76" height="5.76"/><rect class="cls-17" x="267.41" y="105.45" width="5.76" height="5.76"/><path class="cls-27" d="M353.3,149.39c-2.77,3.77-4.67,11.38-4.67,20.16a45.8,45.8,0,0,0,2.76,16.62,25.07,25.07,0,0,0,16.75,0,45.82,45.82,0,0,0,2.75-16.62c0-8.78-1.89-16.39-4.67-20.16a25.26,25.26,0,0,0-12.92,0Z" transform="translate(-13.32 -7)"/><path class="cls-28" d="M366.22,149.39a25.24,25.24,0,0,0-6.46-.84v15.54a58.58,58.58,0,0,1,11,1C370.2,158.23,368.51,152.5,366.22,149.39Z" transform="translate(-13.32 -7)"/><path class="cls-28" d="M353.3,149.39c-2.29,3.11-4,8.84-4.5,15.68a58.66,58.66,0,0,1,11-1V148.55A25.3,25.3,0,0,0,353.3,149.39Z" transform="translate(-13.32 -7)"/><path class="cls-8" d="M360.57,164.62a1,1,0,0,1-.95.94h0a.94.94,0,0,1-.94-.94v-3.15a.94.94,0,0,1,.94-.95h0a1,1,0,0,1,.95.95Z" transform="translate(-13.32 -7)"/><path class="cls-15" d="M355.08,187.17a25.61,25.61,0,0,0,4.68.44,24.74,24.74,0,0,0,8.38-1.44,45.82,45.82,0,0,0,2.75-16.62c0-8.78-1.89-16.39-4.67-20.16-.3-.08-.6-.14-.91-.21C366.38,156.81,366.73,172.76,355.08,187.17Z" transform="translate(-13.32 -7)"/><path class="cls-27" d="M365.19,164.32a53.26,53.26,0,0,1,5.53.75c-.52-6.84-2.21-12.57-4.5-15.68-.3-.08-.6-.14-.91-.21A52.11,52.11,0,0,1,365.19,164.32Z" transform="translate(-13.32 -7)"/><path class="cls-27" d="M353.3,149.39c-2.77,3.77-4.67,11.38-4.67,20.16a45.8,45.8,0,0,0,2.76,16.62,25.07,25.07,0,0,0,16.75,0,45.82,45.82,0,0,0,2.75-16.62c0-8.78-1.89-16.39-4.67-20.16a25.26,25.26,0,0,0-12.92,0Z" transform="translate(-13.32 -7)"/><path class="cls-28" d="M366.22,149.39a25.24,25.24,0,0,0-6.46-.84v15.54a58.58,58.58,0,0,1,11,1C370.2,158.23,368.51,152.5,366.22,149.39Z" transform="translate(-13.32 -7)"/><path class="cls-28" d="M353.3,149.39c-2.29,3.11-4,8.84-4.5,15.68a58.66,58.66,0,0,1,11-1V148.55A25.3,25.3,0,0,0,353.3,149.39Z" transform="translate(-13.32 -7)"/><path class="cls-8" d="M360.57,164.62a1,1,0,0,1-.95.94h0a.94.94,0,0,1-.94-.94v-3.15a.94.94,0,0,1,.94-.95h0a1,1,0,0,1,.95.95Z" transform="translate(-13.32 -7)"/><path class="cls-15" d="M355.08,187.17a25.61,25.61,0,0,0,4.68.44,24.74,24.74,0,0,0,8.38-1.44,45.82,45.82,0,0,0,2.75-16.62c0-8.78-1.89-16.39-4.67-20.16-.3-.08-.6-.14-.91-.21C366.38,156.81,366.73,172.76,355.08,187.17Z" transform="translate(-13.32 -7)"/><path class="cls-27" d="M365.19,164.32a53.26,53.26,0,0,1,5.53.75c-.52-6.84-2.21-12.57-4.5-15.68-.3-.08-.6-.14-.91-.21A52.11,52.11,0,0,1,365.19,164.32Z" transform="translate(-13.32 -7)"/><path class="cls-15" d="M399.46,158.88a1.55,1.55,0,0,1-2.18,0L386.42,148a1.53,1.53,0,0,1,0-2.17l35.32-35.32a1.53,1.53,0,0,1,2.17,0l10.87,10.87a1.53,1.53,0,0,1,0,2.17Z" transform="translate(-13.32 -7)"/><rect class="cls-29" x="417.61" y="115.9" width="7.17" height="16.4" transform="translate(22.29 327.19) rotate(-45)"/><rect class="cls-30" x="411.45" y="122.06" width="7.17" height="16.4" transform="translate(16.12 324.61) rotate(-45)"/><rect class="cls-31" x="405.29" y="128.22" width="7.17" height="16.4" transform="translate(9.97 322.08) rotate(-45)"/><rect class="cls-32" x="399.13" y="134.38" width="7.17" height="16.39" transform="translate(3.8 319.5) rotate(-45)"/><rect class="cls-33" x="392.97" y="140.54" width="7.17" height="16.4" transform="translate(-2.35 316.97) rotate(-45)"/><rect class="cls-15" x="404.96" y="109.02" width="18.44" height="53.02" rx="1.54"/><rect class="cls-34" x="405.98" y="116.96" width="16.39" height="7.17"/><rect class="cls-35" x="405.98" y="125.67" width="16.39" height="7.17"/><rect class="cls-36" x="405.98" y="134.38" width="16.39" height="7.17"/><rect class="cls-37" x="405.98" y="143.09" width="16.39" height="7.17"/><rect class="cls-38" x="405.98" y="151.8" width="16.39" height="7.17"/><path class="cls-15" d="M467.27,147a1.53,1.53,0,0,1,0,2.17L456.4,160a1.53,1.53,0,0,1-2.17,0l-35.32-35.32a1.53,1.53,0,0,1,0-2.17l10.87-10.87a1.53,1.53,0,0,1,2.17,0Z" transform="translate(-13.32 -7)"/><rect class="cls-39" x="424.3" y="121.63" width="16.39" height="7.17" transform="translate(24.82 335.5) rotate(-45)"/><rect class="cls-40" x="430.46" y="127.79" width="16.39" height="7.17" transform="translate(22.28 341.69) rotate(-45)"/><rect class="cls-41" x="436.61" y="133.94" width="16.39" height="7.17" transform="translate(19.71 347.81) rotate(-45)"/><rect class="cls-42" x="442.77" y="140.1" width="16.39" height="7.17" transform="translate(17.16 353.97) rotate(-45)"/><rect class="cls-43" x="448.93" y="146.26" width="16.39" height="7.17" transform="translate(14.62 360.15) rotate(-45)"/><rect class="cls-44" x="409.37" y="104.61" width="53.03" height="18.44" rx="1.54"/><rect class="cls-45" x="417.31" y="105.63" width="7.17" height="16.39"/><rect class="cls-46" x="426.02" y="105.63" width="7.17" height="16.39"/><rect class="cls-47" x="434.73" y="105.63" width="7.17" height="16.39"/><rect class="cls-48" x="443.44" y="105.63" width="7.17" height="16.39"/><rect class="cls-49" x="452.15" y="105.63" width="7.17" height="16.39"/><path class="cls-28" d="M428.05,120a.92.92,0,1,1-.92-.92A.92.92,0,0,1,428.05,120Z" transform="translate(-13.32 -7)"/><text class="cls-50" transform="translate(59.61 61.48) rotate(-15.23)"><tspan class="cls-51">T</tspan><tspan x="5.42" y="0">u</tspan><tspan class="cls-52" x="12.04" y="0">t</tspan><tspan x="15.94" y="0">o</tspan><tspan class="cls-53" x="22.52" y="0">r</tspan><tspan x="26.5" y="0">ial</tspan></text><text class="cls-50" transform="translate(105.41 97) rotate(-15.23)"><tspan class="cls-54">W</tspan><tspan class="cls-55" x="9.76" y="0">o</tspan><tspan class="cls-53" x="16.34" y="0">r</tspan><tspan x="20.32" y="0">kshops</tspan></text><path class="cls-14" d="M149.48,70a8.45,8.45,0,0,0,.27,5.18s38.39,4.19,46.87,6.69,7.23,11.25,10.18,11.61,3.93-1.43,2.32-3.75-6.43-9.11-14.19-10.53S149.48,70,149.48,70Z" transform="translate(-13.32 -7)"/><path class="cls-14" d="M215.32,70a8.53,8.53,0,0,1-.27,5.18s-38.4,4.19-46.88,6.69S160.94,93.09,158,93.45s-3.93-1.43-2.32-3.75,6.43-9.11,14.2-10.53S215.32,70,215.32,70Z" transform="translate(-13.32 -7)"/><path class="cls-56" d="M151.13,71.65s-2.08,11.1,3.4,15.79,16.54,4,20.31-1.15,5.49-11.19,3.31-14-7.75-4.88-15.59-4.4S151.13,71.65,151.13,71.65Z" transform="translate(-13.32 -7)"/><path class="cls-56" d="M213.66,71.65s2.08,11.1-3.4,15.79-16.53,4-20.31-1.15-5.48-11.19-3.31-14,7.75-4.88,15.59-4.4S213.66,71.65,213.66,71.65Z" transform="translate(-13.32 -7)"/><path class="cls-14" d="M216.92,69.43s-5.36-2-14.55-1.87c-11.39.13-15.65,1.83-17.14,3.7a13.64,13.64,0,0,0-5.69,0c-1.5-1.86-5.77-3.55-17.12-3.68-9.18-.11-14.55,1.87-14.55,1.87a4.53,4.53,0,0,0-.62,5,8.66,8.66,0,0,1,2.94,1.16s-.89,10.72,6.16,14.11,14.2,1.52,17.5-1.34a21.27,21.27,0,0,0,6.47-13.13,5.07,5.07,0,0,1,2.15-.44,5.21,5.21,0,0,1,2,.37,21.28,21.28,0,0,0,6.47,13.2c3.31,2.86,10.45,4.73,17.5,1.34s6.16-14.11,6.16-14.11a8.66,8.66,0,0,1,3-1.16A4.52,4.52,0,0,0,216.92,69.43ZM174.3,85.9c-3.57,4.88-14,5.52-19.2,1.09s-3.21-14.92-3.21-14.92,3.39-3.08,10.8-3.53,12.68,1.63,14.74,4.16S177.87,81,174.3,85.9ZM209.69,87c-5.18,4.43-15.62,3.79-19.2-1.09s-5.17-10.58-3.12-13.2,7.32-4.61,14.73-4.16,10.81,3.53,10.81,3.53S214.87,82.56,209.69,87Z" transform="translate(-13.32 -7)"/><path class="cls-8" d="M182.46,71.5h-.12a12.08,12.08,0,0,0-2.59.26v3.69c0-.08,0-.17,0-.26l0-.31.28-.14a5.74,5.74,0,0,1,2.38-.5Z" transform="translate(-13.32 -7)"/><text class="cls-57" transform="translate(35.44 96.81) rotate(-15.23)">S<tspan class="cls-55" x="5.99" y="0">er</tspan></text><line class="cls-58" x1="59.97" y1="63.81" x2="96.78" y2="53.94"/><line class="cls-58" x1="104.05" y1="101.45" x2="162.85" y2="85.27"/><line class="cls-58" x1="33.59" y1="102.28" x2="53.28" y2="97"/></svg>