<svg width="70" height="59" viewBox="0 0 70 59" fill="none" xmlns="http://www.w3.org/2000/svg">
<g clip-path="url(#clip0)">
<path d="M69.9984 15.8215C69.9984 15.2907 69.6617 14.8396 69.1876 14.6715C68.8288 12.9199 68.3503 11.907 68.2883 11.7832C66.6224 7.74931 64.199 4.79908 61.08 3.00772C58.7186 1.65425 56.4769 1.24732 54.9705 1.03501C54.8066 0.55289 54.3503 0.207887 53.8142 0.207887C53.3933 0.207887 53.0256 0.420196 52.8041 0.738661C50.5667 0.539621 48.2984 0.924432 46.0566 1.88867C43.9876 2.78214 41.9319 4.16658 39.9471 6.0066C37.3731 8.39066 35.6142 10.8853 34.8965 11.9867C34.8699 11.9867 34.8477 11.9822 34.8212 11.9822C34.7902 11.9822 34.7547 11.9822 34.7237 11.9867C34.037 10.7703 32.761 8.75778 30.8515 6.74968C29.1015 4.90966 27.1876 3.45888 25.1629 2.44156C22.9522 1.33136 20.6041 0.738661 18.1718 0.672314C17.968 0.274233 17.5515 0 17.0731 0C16.5636 0 16.125 0.314042 15.9389 0.756353C12.7402 1.15001 8.07053 3.12272 4.61483 6.83814C4.5661 6.83372 4.5218 6.8293 4.47306 6.8293C3.79521 6.8293 3.25028 7.37776 3.25028 8.05008C3.25028 8.17835 3.268 8.3022 3.30787 8.4172C2.86926 9.00989 2.4661 9.63798 2.09838 10.3059C0.374961 13.4374 -0.294027 16.9936 0.113568 20.8815C0.454707 24.1281 1.54901 27.5958 3.38319 31.2405C3.29458 31.4086 3.24585 31.5988 3.24585 31.7978C3.24585 32.4215 3.71547 32.939 4.32243 33.0097C4.79205 33.8501 5.29711 34.6949 5.84205 35.5486L6.30724 35.2523L5.85977 35.5796C8.29648 38.9235 11.3091 42.201 14.8136 45.3149C17.6091 47.8007 20.7237 50.1936 24.0686 52.4228C27.8522 54.944 31.33 56.8327 33.2794 57.8013C33.2927 58.4648 33.8376 58.9956 34.5022 58.9956C35.1534 58.9956 35.6807 58.4913 35.725 57.8544C37.0408 57.2661 39.5395 56.0586 42.787 54.0815C45.5914 52.3742 48.3648 50.4413 51.0364 48.3403C54.0889 45.9429 57.0041 43.3112 59.7288 40.5202C59.844 40.5556 59.9636 40.5733 60.0876 40.5733C60.7655 40.5733 61.3104 40.0248 61.3104 39.3525C61.3104 39.18 61.275 39.0208 61.2129 38.8704C63.9819 35.5088 66.0952 32.0765 67.4952 28.6574C68.718 25.6806 69.4091 22.7039 69.5509 19.8156C69.6041 18.7098 69.5731 17.7013 69.4933 16.8034C69.799 16.5867 69.9984 16.2284 69.9984 15.8215ZM3.0642 10.8411C3.38319 10.2616 3.72876 9.72202 4.09205 9.21778C4.21167 9.25759 4.34015 9.2797 4.47306 9.2797C4.74775 9.2797 5.00028 9.19124 5.20851 9.03643C6.23635 9.58932 7.10028 10.2174 7.7737 10.9118C8.4604 11.6151 8.96104 12.3892 9.25787 13.2119C9.46167 13.778 9.54142 14.2911 9.56357 14.7024C9.12496 14.8882 8.81483 15.3217 8.81483 15.8303C8.81483 16.5071 9.3642 17.0511 10.0376 17.0511C10.711 17.0511 11.2604 16.5027 11.2604 15.8303C11.2604 15.388 11.0256 14.9988 10.6712 14.7865C10.6579 14.2734 10.5693 13.6321 10.3212 12.9155C9.98002 11.9336 9.39964 11.018 8.60218 10.1864C7.83572 9.39028 6.85661 8.67374 5.69142 8.05008C5.69142 7.84219 5.63382 7.64315 5.54078 7.47065C7.06926 5.86063 8.7218 4.72831 10.0553 3.98081C12.049 2.85291 14.2376 2.08771 16.0275 1.85771C16.2446 2.21156 16.63 2.44599 17.0731 2.44599C17.0819 2.44599 17.0952 2.44599 17.1041 2.44599C19.6294 7.2318 20.9629 12.4157 21.6408 16.0161C22.1503 18.7142 22.3762 20.9302 22.4693 22.1687C22.106 22.381 21.8667 22.7746 21.8667 23.2214C21.8667 23.7079 22.1503 24.1281 22.5623 24.3227C22.4781 24.9331 22.2167 25.5037 21.7737 26.0522C20.3072 27.8612 16.8693 29.3341 11.8231 30.3072C9.24458 30.807 6.84775 31.0547 5.52306 31.1653C5.3104 30.8114 4.92053 30.5726 4.47306 30.5726C4.41547 30.5726 4.35344 30.577 4.29585 30.5859C2.57243 27.1181 1.53572 23.8273 1.21673 20.7621C0.83129 17.1086 1.45597 13.7692 3.0642 10.8411ZM50.3718 47.4601C47.7402 49.5301 45.0066 51.4365 42.2421 53.1217C39.0743 55.0546 36.5889 56.2577 35.2952 56.8371C35.18 56.7398 35.0471 56.6646 34.9009 56.6159C34.7193 55.1475 34.4756 52.3211 34.7547 49.1851C34.9895 46.5312 35.5477 44.1781 36.4117 42.1877C37.3155 40.1044 38.5648 38.4148 40.1288 37.1586C40.2971 37.2427 40.4832 37.2913 40.6826 37.2913C41.3604 37.2913 41.9053 36.7429 41.9053 36.0705C41.9053 36.0219 41.9009 35.9777 41.8965 35.929C42.6142 35.5575 43.394 35.4867 44.3243 35.7034C45.5604 35.9909 46.9383 36.7517 48.3959 37.5567C49.9819 38.4325 51.7807 39.4277 53.73 39.9894C54.8066 40.299 55.8478 40.4494 56.8756 40.4494C57.3674 40.4494 57.8591 40.414 58.3465 40.3433C55.8389 42.8777 53.1585 45.2662 50.3718 47.4601ZM68.4433 19.8421C68.3015 22.5977 67.6281 25.4418 66.4541 28.2947C65.094 31.5899 63.0471 34.9073 60.3667 38.1671C60.2781 38.145 60.1851 38.1361 60.0876 38.1361C59.4895 38.1361 58.9933 38.5608 58.887 39.1269C55.0636 39.985 51.825 38.1936 48.9408 36.5969C46.2427 35.1019 43.6775 33.6821 41.2851 35.009C41.1079 34.9073 40.9041 34.8542 40.687 34.8542C40.0091 34.8542 39.4642 35.4026 39.4642 36.075C39.4642 36.1413 39.4686 36.2077 39.4819 36.2696C37.7541 37.6452 36.3851 39.4896 35.3971 41.7675C34.4845 43.8685 33.8996 46.3454 33.656 49.1187C33.399 52.038 33.5718 54.6432 33.7446 56.2444C33.1864 55.6384 32.4598 54.7848 31.6534 53.6701C30.1028 51.5161 27.9496 47.9466 26.2661 42.9175C26.4921 42.6964 26.6294 42.3868 26.6294 42.0506C26.6294 41.3739 26.08 40.8298 25.4066 40.8298C24.7332 40.8298 24.1838 41.3783 24.1838 42.0506C24.1838 42.661 24.6313 43.1652 25.2161 43.2581C26.9528 48.4509 29.1769 52.1353 30.7895 54.3601C31.2015 54.9263 31.5914 55.4305 31.9503 55.8684C30.1383 54.8953 27.5819 53.4357 24.6977 51.5161C21.3927 49.3178 18.3224 46.9558 15.5623 44.501C12.1243 41.4446 9.16927 38.2334 6.78129 34.9559C6.28509 34.173 5.8199 33.399 5.38572 32.6338C5.47876 32.532 5.55407 32.4126 5.61167 32.2844C6.96294 32.1693 9.40408 31.9172 12.0313 31.413C17.4186 30.3736 20.9895 28.8122 22.6465 26.7643C23.2623 26.0035 23.6123 25.1808 23.6921 24.305C24.0686 24.0972 24.3256 23.6947 24.3256 23.2346C24.3256 22.7304 24.0243 22.3014 23.5902 22.1112C23.4927 20.855 23.2667 18.6169 22.744 15.8436C22.0484 12.1547 20.6883 6.84699 18.0876 1.92848C18.1186 1.88425 18.1452 1.84002 18.1674 1.79136C20.4224 1.85771 22.6022 2.4106 24.649 3.43676C26.5585 4.39216 28.3661 5.7589 30.0275 7.50161C31.8705 9.43894 33.1243 11.4161 33.7756 12.5794C33.6604 12.7651 33.594 12.9819 33.594 13.2163C33.594 13.7249 33.9041 14.1628 34.3471 14.3442C34.4933 15.2376 34.8788 16.6486 35.9243 18.1879C36.9212 19.6608 38.3167 20.9523 40.0667 22.0271C41.9807 23.1993 44.3332 24.1193 47.0712 24.7606C47.2085 25.287 47.687 25.6762 48.2585 25.6762C48.9364 25.6762 49.4813 25.1277 49.4813 24.4554C49.4813 23.7787 48.9319 23.2346 48.2585 23.2346C47.8775 23.2346 47.5364 23.4116 47.3104 23.6814C44.7231 23.0754 42.5034 22.2129 40.7003 21.1204C39.0832 20.1385 37.8028 18.9663 36.8857 17.6394C36.075 16.4629 35.7072 15.3748 35.5389 14.6715C35.5034 14.5255 35.4769 14.3884 35.4547 14.2646C35.8047 14.0478 36.0395 13.663 36.0395 13.2207C36.0395 12.9774 35.9686 12.7519 35.849 12.5617C36.5623 11.4868 38.2769 9.06739 40.7136 6.8116C42.6053 5.06447 44.5503 3.75081 46.5041 2.91484C48.5553 2.03464 50.6199 1.67636 52.6579 1.84886C52.8262 2.32656 53.2781 2.66714 53.8142 2.66714C53.9383 2.66714 54.0579 2.64945 54.1686 2.61406C54.687 3.28195 54.9218 3.98523 54.8731 4.73716C54.7667 6.42237 53.2826 7.96604 52.3123 8.80201C52.1572 8.72681 51.98 8.68701 51.794 8.68701C51.1161 8.68701 50.5712 9.23547 50.5712 9.90779C50.5712 10.5845 51.1205 11.1286 51.794 11.1286C52.4718 11.1286 53.0167 10.5801 53.0167 9.90779C53.0167 9.82817 53.0079 9.74856 52.9946 9.67336C54.0977 8.73124 55.8433 6.92218 55.9762 4.80793C56.0338 3.88792 55.7857 3.01657 55.2364 2.20271C56.6364 2.42387 58.5503 2.84407 60.5262 3.97638C63.4857 5.67486 65.7851 8.52335 67.3579 12.4422L67.3667 12.4378C67.4864 12.7165 67.7345 13.349 67.9604 14.2823C68.0003 14.4459 68.0402 14.6273 68.08 14.8175C67.7566 15.0386 67.5484 15.4057 67.5484 15.8259C67.5484 16.37 67.9028 16.83 68.399 16.9892C68.4699 17.8296 68.4965 18.785 68.4433 19.8421Z" fill="white"/>
</g>
<defs>
<clipPath id="clip0">
<rect width="70" height="59" fill="white"/>
</clipPath>
</defs>
</svg>
