<svg id="Layer_1" data-name="Layer 1" xmlns="http://www.w3.org/2000/svg" xmlns:xlink="http://www.w3.org/1999/xlink" viewBox="0 0 408.22 89.62"><defs><style>.cls-1{fill:none;}.cls-2{clip-path:url(#clip-path);}.cls-3{fill:#010101;}.cls-4{fill:#231f20;}.cls-5{fill:#fff;}</style><clipPath id="clip-path" transform="translate(10.47 0)"><rect class="cls-1" x="138.76" width="258.99" height="89.62"/></clipPath></defs><g class="cls-2"><path class="cls-3" d="M183.54,20a.08.08,0,0,1,.05.06,1.05,1.05,0,0,1-.2.27c-.13.16-.3.4-.52.72s-.44.68-.68,1.11a10.2,10.2,0,0,0-.75,1.63,18.57,18.57,0,0,0-.64,2.11,27.93,27.93,0,0,0-.61,6.26,1.3,1.3,0,0,1,0,.26,0,0,0,0,1,0,.05h-.91s0,0,0-.07,0-.18,0-.42c0-.84,0-1.62.11-2.35a20.72,20.72,0,0,1,.34-2.43,15.71,15.71,0,0,1,.68-2.48,14.91,14.91,0,0,1,1.13-2.37,11.9,11.9,0,0,1,1.69-2.23l0,0s0,0,0,0l0,0h.32Z" transform="translate(10.47 0)"/><path class="cls-3" d="M183.59,89.55s0,0-.05.07h-.29l-.12-.12a12.44,12.44,0,0,1-1.44-1.81,12.27,12.27,0,0,1-1.05-2,17.3,17.3,0,0,1-.71-2,18.17,18.17,0,0,1-.44-2.08c-.1-.73-.18-1.4-.22-2s-.07-1.26-.09-2v-.41a.09.09,0,0,1,0-.08h.92s0,0,0,0a1.43,1.43,0,0,1,0,.26,26.57,26.57,0,0,0,.8,7,13.45,13.45,0,0,0,2.52,5c.06.06.08.1.08.12" transform="translate(10.47 0)"/><path class="cls-3" d="M180,80.55h0s-.07,0-.13.08a.17.17,0,0,1-.23,0c-.24,0-.36,0-.38-.08a2.39,2.39,0,0,1,0-.35q0-.86,0-11.37V53.93q0-26,0-26.28l0-.34c0-.06.16-.09.46-.09H180s0,0,0,.09" transform="translate(10.47 0)"/><path class="cls-3" d="M191.56,20a.12.12,0,0,1,.05.06,1.47,1.47,0,0,1-.2.27,7,7,0,0,0-.52.72q-.31.46-.69,1.11a11.25,11.25,0,0,0-.74,1.63,18.57,18.57,0,0,0-.64,2.11,27.89,27.89,0,0,0-.62,6.26v.26s0,.05,0,.05h-.91s0,0,0-.07,0-.18,0-.42c0-.84,0-1.62.1-2.35a23.08,23.08,0,0,1,.34-2.43,16.86,16.86,0,0,1,.68-2.48,15,15,0,0,1,1.14-2.37,11.44,11.44,0,0,1,1.68-2.23l0,0,0,0s0,0,0,0h.33Z" transform="translate(10.47 0)"/><path class="cls-3" d="M191.61,59s0,0-.05.06h-.3l-.12-.12a13.7,13.7,0,0,1-1.43-1.81,12.33,12.33,0,0,1-1.06-2,17.2,17.2,0,0,1-.7-2,16.26,16.26,0,0,1-.44-2.08c-.11-.73-.18-1.4-.22-2s-.08-1.26-.09-2v-.41s0-.07,0-.08h.92a.07.07,0,0,1,0,.05v.26a26.62,26.62,0,0,0,.8,7,13.62,13.62,0,0,0,2.53,5c.05.06.08.1.08.12" transform="translate(10.47 0)"/><path class="cls-3" d="M188.17,51.05h0l-.15,0a.41.41,0,0,1-.27,0c-.29,0-.44,0-.45,0a.3.3,0,0,1,0-.15c0-.24,0-1.89,0-4.92V39.52c0-7.51,0-11.31,0-11.38l0-.15a1.52,1.52,0,0,1,.56,0h.32s0,0,0,0,0,.21,0,.63V46q0,5.07,0,5.07" transform="translate(10.47 0)"/><path class="cls-3" d="M193.57,21.2l-.11,0-.32.07-.46.05h-.15V21h.15a2.93,2.93,0,0,0,.69-.11,1.94,1.94,0,0,0,.45-.16,1.39,1.39,0,0,0,.22-.15s.05,0,.1,0a.25.25,0,0,1,.14,0v4.13l.1.06.19,0h.7v.32h-.08c-.11,0-.54,0-1.27,0s-1.15,0-1.26,0h-.09v-.32h.71l.13,0,.06,0,.05,0,0,0Z" transform="translate(10.47 0)"/><path class="cls-3" d="M204.61,21.16a1.47,1.47,0,0,1,1.23-.56,1.76,1.76,0,0,1,.76.18,1.37,1.37,0,0,1,.63.63,3.57,3.57,0,0,1,.29,1.57,3.18,3.18,0,0,1-.34,1.64,1.22,1.22,0,0,1-.44.46,1.31,1.31,0,0,1-.49.21,1.92,1.92,0,0,1-.41.05,2,2,0,0,1-.41,0,1.55,1.55,0,0,1-.49-.22,1.38,1.38,0,0,1-.44-.46,3.18,3.18,0,0,1-.34-1.64,3.07,3.07,0,0,1,.45-1.82m1.8-.09a.85.85,0,0,0-1.14,0,.89.89,0,0,0-.26.5,7.33,7.33,0,0,0-.07,1.32,8.73,8.73,0,0,0,.07,1.44.88.88,0,0,0,.28.54.79.79,0,0,0,.55.21.77.77,0,0,0,.55-.21,1,1,0,0,0,.29-.58c0-.24,0-.71.06-1.4a8.86,8.86,0,0,0-.06-1.31,1,1,0,0,0-.27-.51" transform="translate(10.47 0)"/><path class="cls-3" d="M216.89,24.78a.38.38,0,0,1,.14-.29.45.45,0,0,1,.34-.13.58.58,0,0,1,.34.11.44.44,0,0,1,.15.3.37.37,0,0,1-.14.3.54.54,0,0,1-.68,0,.4.4,0,0,1-.15-.29m3.58,0a.37.37,0,0,1,.13-.29.47.47,0,0,1,.34-.13.58.58,0,0,1,.34.11.37.37,0,0,1,.15.3.39.39,0,0,1-.13.3.51.51,0,0,1-.35.12.49.49,0,0,1-.34-.12.36.36,0,0,1-.14-.29m3.57,0a.37.37,0,0,1,.13-.29.48.48,0,0,1,.35-.13.55.55,0,0,1,.33.11.37.37,0,0,1,.15.3.39.39,0,0,1-.13.3.51.51,0,0,1-.35.12.5.5,0,0,1-.34-.12.36.36,0,0,1-.14-.29" transform="translate(10.47 0)"/><path class="cls-3" d="M234.83,21.16a1.46,1.46,0,0,1,1.22-.56,1.8,1.8,0,0,1,.77.18,1.4,1.4,0,0,1,.62.63,3.43,3.43,0,0,1,.3,1.57,3.17,3.17,0,0,1-.35,1.64,1.14,1.14,0,0,1-.44.46,1.21,1.21,0,0,1-.48.21,1.93,1.93,0,0,1-.83,0,1.51,1.51,0,0,1-.48-.22,1.21,1.21,0,0,1-.44-.46,3.17,3.17,0,0,1-.35-1.64,3.07,3.07,0,0,1,.46-1.82m1.8-.09a.85.85,0,0,0-.57-.22.87.87,0,0,0-.58.22.89.89,0,0,0-.26.5,8.93,8.93,0,0,0-.06,1.32,10.64,10.64,0,0,0,.06,1.44.89.89,0,0,0,.29.54.81.81,0,0,0,1.09,0,.9.9,0,0,0,.29-.58,10.43,10.43,0,0,0,.06-1.4,8.86,8.86,0,0,0-.06-1.31.92.92,0,0,0-.26-.51" transform="translate(10.47 0)"/><path class="cls-3" d="M192.63,30.09a1.47,1.47,0,0,1,1.22-.56,1.8,1.8,0,0,1,.77.18,1.35,1.35,0,0,1,.62.63,3.44,3.44,0,0,1,.3,1.58,3.27,3.27,0,0,1-.34,1.63,1.3,1.3,0,0,1-.44.46,1.55,1.55,0,0,1-.49.22l-.41.05a1.84,1.84,0,0,1-.41-.05,1.53,1.53,0,0,1-.93-.68,3.17,3.17,0,0,1-.34-1.63,3.13,3.13,0,0,1,.45-1.83m1.8-.09a.85.85,0,0,0-1.41.5,9,9,0,0,0-.06,1.33,10.56,10.56,0,0,0,.06,1.43,1,1,0,0,0,.29.55.81.81,0,0,0,.55.2.78.78,0,0,0,.54-.2,1,1,0,0,0,.29-.58,12.08,12.08,0,0,0,.07-1.4,8.46,8.46,0,0,0-.07-1.32,1,1,0,0,0-.26-.51" transform="translate(10.47 0)"/><path class="cls-3" d="M205.55,30.14l-.11,0-.31.07-.47.05h-.15V30h.15a3.11,3.11,0,0,0,.7-.1,1.91,1.91,0,0,0,.44-.17l.23-.15a.14.14,0,0,1,.09,0,.23.23,0,0,1,.14,0V33.7a.24.24,0,0,0,.09.07l.2,0,.49,0h.21v.31h-.09c-.11,0-.53,0-1.27,0s-1.14,0-1.25,0h-.1v-.31h.71l.13,0h.06l.05,0,.05,0Z" transform="translate(10.47 0)"/><path class="cls-3" d="M216.89,33.71a.38.38,0,0,1,.14-.29.49.49,0,0,1,.34-.12.51.51,0,0,1,.34.11.4.4,0,0,1,.15.29.36.36,0,0,1-.14.3.49.49,0,0,1-.34.12A.53.53,0,0,1,217,34a.44.44,0,0,1-.15-.3m3.58,0a.37.37,0,0,1,.13-.29.5.5,0,0,1,.34-.12.51.51,0,0,1,.34.11.34.34,0,0,1,.15.29.38.38,0,0,1-.13.3.51.51,0,0,1-.35.12.53.53,0,0,1-.34-.11.39.39,0,0,1-.14-.3m3.57,0a.37.37,0,0,1,.13-.29.51.51,0,0,1,.35-.12.49.49,0,0,1,.33.11.34.34,0,0,1,.15.29.38.38,0,0,1-.13.3.51.51,0,0,1-.35.12.55.55,0,0,1-.34-.11.39.39,0,0,1-.14-.3" transform="translate(10.47 0)"/><path class="cls-3" d="M234.83,30.09a1.46,1.46,0,0,1,1.22-.56,1.8,1.8,0,0,1,.77.18,1.4,1.4,0,0,1,.62.63,3.44,3.44,0,0,1,.3,1.58,3.16,3.16,0,0,1-.35,1.63A1.14,1.14,0,0,1,237,34a1.42,1.42,0,0,1-.48.22l-.41.05a2,2,0,0,1-.42-.05,1.32,1.32,0,0,1-.48-.22,1.21,1.21,0,0,1-.44-.46,3.16,3.16,0,0,1-.35-1.63,3.13,3.13,0,0,1,.46-1.83m1.8-.09a.85.85,0,0,0-.57-.22.87.87,0,0,0-.58.22.89.89,0,0,0-.26.5,9,9,0,0,0-.06,1.33,10.56,10.56,0,0,0,.06,1.43,1,1,0,0,0,.29.55.84.84,0,0,0,1.09,0,1,1,0,0,0,.29-.58,10.64,10.64,0,0,0,.06-1.4,8.93,8.93,0,0,0-.06-1.32,1,1,0,0,0-.26-.51" transform="translate(10.47 0)"/><path class="cls-3" d="M193.37,48.16a.38.38,0,0,1,.14-.29.49.49,0,0,1,.34-.12.51.51,0,0,1,.34.11.4.4,0,0,1,.15.29.39.39,0,0,1-.14.3.49.49,0,0,1-.34.12.48.48,0,0,1-.34-.11.44.44,0,0,1-.15-.3m0-2.83a.4.4,0,0,1,.14-.29.49.49,0,0,1,.34-.12.58.58,0,0,1,.34.11.4.4,0,0,1,.15.3.38.38,0,0,1-.14.29.49.49,0,0,1-.34.13.49.49,0,0,1-.34-.12.44.44,0,0,1-.15-.3m0-2.76a.4.4,0,0,1,.14-.29.49.49,0,0,1,.34-.12.58.58,0,0,1,.34.11.4.4,0,0,1,.15.3.38.38,0,0,1-.14.29.45.45,0,0,1-.34.13.49.49,0,0,1-.34-.12.44.44,0,0,1-.15-.3" transform="translate(10.47 0)"/><path class="cls-3" d="M205.36,48.16a.37.37,0,0,1,.13-.29.51.51,0,0,1,.35-.12.49.49,0,0,1,.33.11.34.34,0,0,1,.15.29.38.38,0,0,1-.13.3.51.51,0,0,1-.35.12.5.5,0,0,1-.34-.11.39.39,0,0,1-.14-.3m0-2.83a.39.39,0,0,1,.13-.29.51.51,0,0,1,.35-.12.55.55,0,0,1,.33.11.34.34,0,0,1,.15.3.37.37,0,0,1-.13.29.52.52,0,0,1-.35.13.5.5,0,0,1-.34-.12.39.39,0,0,1-.14-.3m0-2.76a.39.39,0,0,1,.13-.29.51.51,0,0,1,.35-.12.55.55,0,0,1,.33.11.34.34,0,0,1,.15.3.37.37,0,0,1-.13.29.48.48,0,0,1-.35.13.5.5,0,0,1-.34-.12.39.39,0,0,1-.14-.3" transform="translate(10.47 0)"/><path class="cls-3" d="M216.89,43.12a.4.4,0,0,1,.14-.29.49.49,0,0,1,.34-.12.58.58,0,0,1,.34.11.4.4,0,0,1,.15.3.35.35,0,0,1-.14.29.45.45,0,0,1-.34.13.49.49,0,0,1-.34-.12.44.44,0,0,1-.15-.3m3.58,2.07a.39.39,0,0,1,.13-.29.5.5,0,0,1,.34-.12.58.58,0,0,1,.34.11.34.34,0,0,1,.15.3.37.37,0,0,1-.13.29.48.48,0,0,1-.35.13.49.49,0,0,1-.34-.12.39.39,0,0,1-.14-.3M224,47.26a.39.39,0,0,1,.13-.29.51.51,0,0,1,.35-.12.55.55,0,0,1,.33.11.34.34,0,0,1,.15.3.37.37,0,0,1-.13.29.48.48,0,0,1-.35.13.5.5,0,0,1-.34-.12.39.39,0,0,1-.14-.3" transform="translate(10.47 0)"/><path class="cls-3" d="M235.57,48.16a.38.38,0,0,1,.14-.29.49.49,0,0,1,.34-.12.51.51,0,0,1,.34.11.4.4,0,0,1,.15.29.39.39,0,0,1-.14.3.49.49,0,0,1-.34.12.48.48,0,0,1-.34-.11.44.44,0,0,1-.15-.3m0-2.83a.4.4,0,0,1,.14-.29.49.49,0,0,1,.34-.12.58.58,0,0,1,.34.11.4.4,0,0,1,.15.3.38.38,0,0,1-.14.29.49.49,0,0,1-.34.13.49.49,0,0,1-.34-.12.44.44,0,0,1-.15-.3m0-2.76a.4.4,0,0,1,.14-.29.49.49,0,0,1,.34-.12.58.58,0,0,1,.34.11.4.4,0,0,1,.15.3.38.38,0,0,1-.14.29.45.45,0,0,1-.34.13.49.49,0,0,1-.34-.12.44.44,0,0,1-.15-.3" transform="translate(10.47 0)"/><path class="cls-3" d="M192.63,53.26a1.49,1.49,0,0,1,1.22-.55,1.8,1.8,0,0,1,.77.18,1.31,1.31,0,0,1,.62.63,3.43,3.43,0,0,1,.3,1.57,3.29,3.29,0,0,1-.34,1.64,1.46,1.46,0,0,1-.93.67,2,2,0,0,1-.41.05,1.84,1.84,0,0,1-.41,0,1.46,1.46,0,0,1-.49-.22,1.29,1.29,0,0,1-.44-.46,3.18,3.18,0,0,1-.34-1.64,3.13,3.13,0,0,1,.45-1.83m1.8-.08a.85.85,0,0,0-1.14,0,.85.85,0,0,0-.27.5A8.93,8.93,0,0,0,193,55a10.64,10.64,0,0,0,.06,1.44.89.89,0,0,0,.29.54.77.77,0,0,0,.55.21.75.75,0,0,0,.54-.21.9.9,0,0,0,.29-.58,11.78,11.78,0,0,0,.07-1.4,8.4,8.4,0,0,0-.07-1.31.92.92,0,0,0-.26-.51" transform="translate(10.47 0)"/><path class="cls-3" d="M204.61,53.26a1.49,1.49,0,0,1,1.23-.55,1.76,1.76,0,0,1,.76.18,1.33,1.33,0,0,1,.63.63,3.57,3.57,0,0,1,.29,1.57,3.18,3.18,0,0,1-.34,1.64,1.22,1.22,0,0,1-.44.46,1.31,1.31,0,0,1-.49.21,1.92,1.92,0,0,1-.41.05,2,2,0,0,1-.41,0,1.55,1.55,0,0,1-.49-.22,1.38,1.38,0,0,1-.44-.46,3.18,3.18,0,0,1-.34-1.64,3.13,3.13,0,0,1,.45-1.83m1.8-.08a.85.85,0,0,0-1.14,0,.89.89,0,0,0-.26.5,7.33,7.33,0,0,0-.07,1.32,8.73,8.73,0,0,0,.07,1.44.88.88,0,0,0,.28.54.79.79,0,0,0,.55.21.77.77,0,0,0,.55-.21,1,1,0,0,0,.29-.58c0-.24,0-.71.06-1.4a8.86,8.86,0,0,0-.06-1.31,1,1,0,0,0-.27-.51" transform="translate(10.47 0)"/><path class="cls-3" d="M216.89,56.89a.38.38,0,0,1,.14-.29.45.45,0,0,1,.34-.13.58.58,0,0,1,.34.11.44.44,0,0,1,.15.3.39.39,0,0,1-.14.3.54.54,0,0,1-.68,0,.41.41,0,0,1-.15-.29m3.58,0a.37.37,0,0,1,.13-.29.47.47,0,0,1,.34-.13.58.58,0,0,1,.34.11.37.37,0,0,1,.15.3.41.41,0,0,1-.13.3.51.51,0,0,1-.35.12.49.49,0,0,1-.34-.12.37.37,0,0,1-.14-.29m3.57,0a.37.37,0,0,1,.13-.29.48.48,0,0,1,.35-.13.55.55,0,0,1,.33.11.37.37,0,0,1,.15.3.41.41,0,0,1-.13.3.51.51,0,0,1-.35.12.5.5,0,0,1-.34-.12.37.37,0,0,1-.14-.29" transform="translate(10.47 0)"/><path class="cls-3" d="M235.76,53.31l-.1,0-.32.07a3.15,3.15,0,0,1-.46,0h-.15v-.31h.15a2.93,2.93,0,0,0,.69-.11,2.15,2.15,0,0,0,.45-.16l.22-.15s0,0,.1,0a.25.25,0,0,1,.14,0v4.13l.1.06.19,0h.7v.32h-.08c-.12,0-.54,0-1.27,0s-1.15,0-1.26,0h-.09V57h.71l.12,0,.07,0,.05,0s0,0,0,0Z" transform="translate(10.47 0)"/><path class="cls-3" d="M238.3,20.09c0-.05,0-.07.15-.07h.21l.11.11A13.24,13.24,0,0,1,240.21,22a11.78,11.78,0,0,1,1,2,17.2,17.2,0,0,1,.7,2A14.71,14.71,0,0,1,242.4,28c.11.73.18,1.4.23,2s.07,1.26.08,2v.41c0,.05,0,.07,0,.08h-.91s0,0,0-.05a1.37,1.37,0,0,1,0-.26,27.19,27.19,0,0,0-.69-6.55,14.18,14.18,0,0,0-2.16-4.81l-.32-.42a3.54,3.54,0,0,0-.24-.31" transform="translate(10.47 0)"/><path class="cls-3" d="M238.5,59h0c-.1,0-.16,0-.16-.06l0-.09c.17-.2.34-.41.51-.65A13.81,13.81,0,0,0,241,53.41a28.18,28.18,0,0,0,.69-6.55c0-.19,0-.3,0-.31h.92a.09.09,0,0,1,0,.08V47c0,.84,0,1.63-.1,2.35a23.08,23.08,0,0,1-.34,2.43,16.14,16.14,0,0,1-.68,2.49,14.47,14.47,0,0,1-1.14,2.36,11.15,11.15,0,0,1-1.68,2.23l-.11.11h-.16Z" transform="translate(10.47 0)"/><path class="cls-3" d="M242.68,51.05h-.05l-.15,0a.41.41,0,0,1-.27,0c-.29,0-.44,0-.45,0a.3.3,0,0,1,0-.15c0-.24,0-1.89,0-4.92V39.52c0-7.51,0-11.31,0-11.38l0-.15s.19,0,.56,0h.32s0,0,0,0,0,.21,0,.63V46q0,5.07,0,5.07" transform="translate(10.47 0)"/><path class="cls-3" d="M260.75,20a.12.12,0,0,1,.05.06,1.47,1.47,0,0,1-.2.27,7,7,0,0,0-.52.72q-.31.46-.69,1.11a11.25,11.25,0,0,0-.74,1.63,16.74,16.74,0,0,0-.64,2.11,27.89,27.89,0,0,0-.62,6.26v.26s0,.05,0,.05h-.91s0,0,0-.07,0-.18,0-.42c0-.84,0-1.62.1-2.35a23.08,23.08,0,0,1,.34-2.43,15.71,15.71,0,0,1,.68-2.48,15,15,0,0,1,1.14-2.37,11.44,11.44,0,0,1,1.68-2.23l0,0,0,0s0,0,0,0h.33Z" transform="translate(10.47 0)"/><path class="cls-3" d="M260.8,59s0,0-.05.06h-.3l-.12-.12a13.7,13.7,0,0,1-1.43-1.81,12.33,12.33,0,0,1-1.06-2,17.2,17.2,0,0,1-.7-2A16.26,16.26,0,0,1,256.7,51c-.11-.73-.18-1.4-.22-2s-.08-1.26-.09-2v-.41s0-.07,0-.08h.92a.07.07,0,0,1,0,.05v.26a26.62,26.62,0,0,0,.8,7,13.62,13.62,0,0,0,2.53,5c0,.06.08.1.08.12" transform="translate(10.47 0)"/><path class="cls-3" d="M257.36,51.05h-.05l-.15,0a.41.41,0,0,1-.27,0c-.29,0-.44,0-.46,0a.61.61,0,0,1,0-.15c0-.24,0-1.89,0-4.92V28.14l0-.15s.19,0,.56,0h.32s0,0,0,0a2.16,2.16,0,0,1,0,.63V46q0,5.07,0,5.07" transform="translate(10.47 0)"/><path class="cls-3" d="M262.75,21.2l-.1,0-.32.07-.46.05h-.15V21h.15a2.93,2.93,0,0,0,.69-.11,2.15,2.15,0,0,0,.45-.16,1.39,1.39,0,0,0,.22-.15s0,0,.1,0a.25.25,0,0,1,.14,0v4.13l.1.06.19,0h.7v.32h-.08c-.12,0-.54,0-1.27,0s-1.15,0-1.26,0h-.09v-.32h.71l.12,0,.07,0,0,0,0,0Z" transform="translate(10.47 0)"/><path class="cls-3" d="M273.8,21.16A1.47,1.47,0,0,1,275,20.6a1.76,1.76,0,0,1,.76.18,1.37,1.37,0,0,1,.63.63,3.57,3.57,0,0,1,.29,1.57,3.18,3.18,0,0,1-.34,1.64,1.46,1.46,0,0,1-.93.67,1.89,1.89,0,0,1-.82,0,1.55,1.55,0,0,1-.49-.22,1.29,1.29,0,0,1-.44-.46,3.18,3.18,0,0,1-.34-1.64,3.07,3.07,0,0,1,.45-1.82m1.8-.09a.85.85,0,0,0-1.14,0,1,1,0,0,0-.27.5,8.93,8.93,0,0,0-.06,1.32,10.64,10.64,0,0,0,.06,1.44,1,1,0,0,0,.29.54.83.83,0,0,0,1.1,0,.89.89,0,0,0,.28-.58,11.78,11.78,0,0,0,.07-1.4,7.27,7.27,0,0,0-.07-1.31.92.92,0,0,0-.26-.51" transform="translate(10.47 0)"/><path class="cls-3" d="M286.08,24.78a.38.38,0,0,1,.14-.29.45.45,0,0,1,.34-.13.58.58,0,0,1,.34.11.44.44,0,0,1,.15.3.41.41,0,0,1-.14.3.54.54,0,0,1-.68,0,.4.4,0,0,1-.15-.29m3.57,0a.38.38,0,0,1,.14-.29.45.45,0,0,1,.34-.13.58.58,0,0,1,.34.11.4.4,0,0,1,.15.3.37.37,0,0,1-.14.3.54.54,0,0,1-.68,0,.4.4,0,0,1-.15-.29m3.58,0a.37.37,0,0,1,.13-.29.47.47,0,0,1,.34-.13.58.58,0,0,1,.34.11.37.37,0,0,1,.15.3.39.39,0,0,1-.13.3.53.53,0,0,1-.35.12.49.49,0,0,1-.34-.12.36.36,0,0,1-.14-.29" transform="translate(10.47 0)"/><path class="cls-3" d="M304,21.16a1.46,1.46,0,0,1,1.22-.56,1.8,1.8,0,0,1,.77.18,1.4,1.4,0,0,1,.62.63,3.43,3.43,0,0,1,.3,1.57,3.17,3.17,0,0,1-.35,1.64,1.14,1.14,0,0,1-.44.46,1.27,1.27,0,0,1-.48.21,1.93,1.93,0,0,1-.83,0,1.42,1.42,0,0,1-.48-.22,1.21,1.21,0,0,1-.44-.46,3.17,3.17,0,0,1-.35-1.64,3,3,0,0,1,.46-1.82m1.8-.09a.86.86,0,0,0-1.15,0,.89.89,0,0,0-.26.5,8.93,8.93,0,0,0-.06,1.32,10.64,10.64,0,0,0,.06,1.44.89.89,0,0,0,.29.54.81.81,0,0,0,1.09,0,.9.9,0,0,0,.29-.58,10.43,10.43,0,0,0,.06-1.4,8.86,8.86,0,0,0-.06-1.31.92.92,0,0,0-.26-.51" transform="translate(10.47 0)"/><path class="cls-3" d="M261.82,30.09a1.47,1.47,0,0,1,1.22-.56,1.8,1.8,0,0,1,.77.18,1.35,1.35,0,0,1,.62.63,3.44,3.44,0,0,1,.3,1.58,3.16,3.16,0,0,1-.35,1.63A1.19,1.19,0,0,1,264,34a1.55,1.55,0,0,1-.49.22l-.41.05a1.84,1.84,0,0,1-.41-.05,1.28,1.28,0,0,1-.49-.22,1.21,1.21,0,0,1-.44-.46,3.16,3.16,0,0,1-.35-1.63,3.13,3.13,0,0,1,.46-1.83m1.8-.09a.85.85,0,0,0-1.41.5,9,9,0,0,0-.06,1.33,10.56,10.56,0,0,0,.06,1.43,1,1,0,0,0,.29.55.84.84,0,0,0,1.09,0,1,1,0,0,0,.29-.58,12.08,12.08,0,0,0,.07-1.4,8.46,8.46,0,0,0-.07-1.32,1,1,0,0,0-.26-.51" transform="translate(10.47 0)"/><path class="cls-3" d="M274.74,30.14l-.11,0-.31.07-.47.05h-.15V30h.15a3.11,3.11,0,0,0,.7-.1,1.91,1.91,0,0,0,.44-.17l.23-.15a.14.14,0,0,1,.09,0,.23.23,0,0,1,.14,0V33.7a.24.24,0,0,0,.09.07l.2,0,.49,0h.21v.31h-.09c-.11,0-.54,0-1.27,0s-1.14,0-1.25,0h-.1v-.31h.71l.13,0h.06l.05,0,.05,0Z" transform="translate(10.47 0)"/><path class="cls-3" d="M286.08,33.71a.38.38,0,0,1,.14-.29.49.49,0,0,1,.34-.12.51.51,0,0,1,.34.11.4.4,0,0,1,.15.29.39.39,0,0,1-.14.3.49.49,0,0,1-.34.12.53.53,0,0,1-.34-.11.44.44,0,0,1-.15-.3m3.57,0a.38.38,0,0,1,.14-.29.49.49,0,0,1,.34-.12.51.51,0,0,1,.34.11.36.36,0,0,1,.15.29.36.36,0,0,1-.14.3.49.49,0,0,1-.34.12.53.53,0,0,1-.34-.11.44.44,0,0,1-.15-.3m3.58,0a.37.37,0,0,1,.13-.29.5.5,0,0,1,.34-.12.51.51,0,0,1,.34.11.34.34,0,0,1,.15.29.38.38,0,0,1-.13.3.58.58,0,0,1-.69,0,.39.39,0,0,1-.14-.3" transform="translate(10.47 0)"/><path class="cls-3" d="M304,30.09a1.46,1.46,0,0,1,1.22-.56,1.8,1.8,0,0,1,.77.18,1.4,1.4,0,0,1,.62.63,3.44,3.44,0,0,1,.3,1.58,3.16,3.16,0,0,1-.35,1.63,1.14,1.14,0,0,1-.44.46,1.51,1.51,0,0,1-.48.22l-.41.05a2,2,0,0,1-.42-.05,1.25,1.25,0,0,1-.48-.22,1.21,1.21,0,0,1-.44-.46,3.16,3.16,0,0,1-.35-1.63,3.05,3.05,0,0,1,.46-1.83m1.8-.09a.86.86,0,0,0-1.15,0,.89.89,0,0,0-.26.5,9,9,0,0,0-.06,1.33,10.56,10.56,0,0,0,.06,1.43,1,1,0,0,0,.29.55.84.84,0,0,0,1.09,0,1,1,0,0,0,.29-.58,10.64,10.64,0,0,0,.06-1.4,8.93,8.93,0,0,0-.06-1.32,1,1,0,0,0-.26-.51" transform="translate(10.47 0)"/><path class="cls-3" d="M262.56,48.16a.38.38,0,0,1,.14-.29.49.49,0,0,1,.34-.12.51.51,0,0,1,.34.11.4.4,0,0,1,.15.29.39.39,0,0,1-.14.3.49.49,0,0,1-.34.12.48.48,0,0,1-.34-.11.44.44,0,0,1-.15-.3m0-2.83a.4.4,0,0,1,.14-.29.49.49,0,0,1,.34-.12.58.58,0,0,1,.34.11.4.4,0,0,1,.15.3.38.38,0,0,1-.14.29.49.49,0,0,1-.34.13.49.49,0,0,1-.34-.12.44.44,0,0,1-.15-.3m0-2.76a.4.4,0,0,1,.14-.29.49.49,0,0,1,.34-.12.58.58,0,0,1,.34.11.4.4,0,0,1,.15.3.38.38,0,0,1-.14.29.45.45,0,0,1-.34.13.49.49,0,0,1-.34-.12.44.44,0,0,1-.15-.3" transform="translate(10.47 0)"/><path class="cls-3" d="M274.55,48.16a.37.37,0,0,1,.13-.29.51.51,0,0,1,.35-.12.49.49,0,0,1,.33.11.34.34,0,0,1,.15.29.38.38,0,0,1-.13.3.51.51,0,0,1-.35.12.5.5,0,0,1-.34-.11.39.39,0,0,1-.14-.3m0-2.83a.39.39,0,0,1,.13-.29.51.51,0,0,1,.35-.12.55.55,0,0,1,.33.11.34.34,0,0,1,.15.3.37.37,0,0,1-.13.29.52.52,0,0,1-.35.13.5.5,0,0,1-.34-.12.39.39,0,0,1-.14-.3m0-2.76a.39.39,0,0,1,.13-.29.51.51,0,0,1,.35-.12.55.55,0,0,1,.33.11.34.34,0,0,1,.15.3.37.37,0,0,1-.13.29A.48.48,0,0,1,275,43a.5.5,0,0,1-.34-.12.39.39,0,0,1-.14-.3" transform="translate(10.47 0)"/><path class="cls-3" d="M286.08,43.12a.4.4,0,0,1,.14-.29.49.49,0,0,1,.34-.12.58.58,0,0,1,.34.11.4.4,0,0,1,.15.3.38.38,0,0,1-.14.29.45.45,0,0,1-.34.13.49.49,0,0,1-.34-.12.44.44,0,0,1-.15-.3m3.57,2.07a.4.4,0,0,1,.14-.29.49.49,0,0,1,.34-.12.58.58,0,0,1,.34.11.37.37,0,0,1,.15.3.35.35,0,0,1-.14.29.45.45,0,0,1-.34.13.49.49,0,0,1-.34-.12.44.44,0,0,1-.15-.3m3.58,2.07a.39.39,0,0,1,.13-.29.5.5,0,0,1,.34-.12A.58.58,0,0,1,294,47a.34.34,0,0,1,.15.3.37.37,0,0,1-.13.29.54.54,0,0,1-.69,0,.39.39,0,0,1-.14-.3" transform="translate(10.47 0)"/><path class="cls-3" d="M304.76,48.16a.38.38,0,0,1,.14-.29.49.49,0,0,1,.34-.12.51.51,0,0,1,.34.11.4.4,0,0,1,.15.29.39.39,0,0,1-.14.3.49.49,0,0,1-.34.12.48.48,0,0,1-.34-.11.4.4,0,0,1-.15-.3m0-2.83a.4.4,0,0,1,.14-.29.49.49,0,0,1,.34-.12.58.58,0,0,1,.34.11.4.4,0,0,1,.15.3.38.38,0,0,1-.14.29.49.49,0,0,1-.34.13.49.49,0,0,1-.34-.12.4.4,0,0,1-.15-.3m0-2.76a.4.4,0,0,1,.14-.29.49.49,0,0,1,.34-.12.58.58,0,0,1,.34.11.4.4,0,0,1,.15.3.38.38,0,0,1-.14.29.45.45,0,0,1-.34.13.49.49,0,0,1-.34-.12.4.4,0,0,1-.15-.3" transform="translate(10.47 0)"/><path class="cls-3" d="M261.82,53.26a1.49,1.49,0,0,1,1.22-.55,1.8,1.8,0,0,1,.77.18,1.31,1.31,0,0,1,.62.63,3.43,3.43,0,0,1,.3,1.57,3.17,3.17,0,0,1-.35,1.64,1.19,1.19,0,0,1-.43.46,1.31,1.31,0,0,1-.49.21,2,2,0,0,1-.41.05,1.84,1.84,0,0,1-.41,0,1.46,1.46,0,0,1-.49-.22,1.21,1.21,0,0,1-.44-.46,3.17,3.17,0,0,1-.35-1.64,3.13,3.13,0,0,1,.46-1.83m1.8-.08a.85.85,0,0,0-1.14,0,.85.85,0,0,0-.27.5,8.93,8.93,0,0,0-.06,1.32,10.64,10.64,0,0,0,.06,1.44.89.89,0,0,0,.29.54.81.81,0,0,0,1.09,0,.9.9,0,0,0,.29-.58A11.78,11.78,0,0,0,264,55a8.4,8.4,0,0,0-.07-1.31.92.92,0,0,0-.26-.51" transform="translate(10.47 0)"/><path class="cls-3" d="M273.8,53.26a1.49,1.49,0,0,1,1.23-.55,1.76,1.76,0,0,1,.76.18,1.33,1.33,0,0,1,.63.63,3.57,3.57,0,0,1,.29,1.57,3.18,3.18,0,0,1-.34,1.64,1.46,1.46,0,0,1-.93.67,1.89,1.89,0,0,1-.82,0,1.55,1.55,0,0,1-.49-.22,1.29,1.29,0,0,1-.44-.46,3.18,3.18,0,0,1-.34-1.64,3.13,3.13,0,0,1,.45-1.83m1.8-.08a.85.85,0,0,0-1.14,0,1,1,0,0,0-.27.5,8.93,8.93,0,0,0-.06,1.32,10.64,10.64,0,0,0,.06,1.44,1,1,0,0,0,.29.54.83.83,0,0,0,1.1,0,.89.89,0,0,0,.28-.58,11.78,11.78,0,0,0,.07-1.4,7.27,7.27,0,0,0-.07-1.31.92.92,0,0,0-.26-.51" transform="translate(10.47 0)"/><path class="cls-3" d="M286.08,56.89a.38.38,0,0,1,.14-.29.45.45,0,0,1,.34-.13.58.58,0,0,1,.34.11.44.44,0,0,1,.15.3.42.42,0,0,1-.14.3.54.54,0,0,1-.68,0,.41.41,0,0,1-.15-.29m3.57,0a.38.38,0,0,1,.14-.29.45.45,0,0,1,.34-.13.58.58,0,0,1,.34.11.4.4,0,0,1,.15.3.39.39,0,0,1-.14.3.54.54,0,0,1-.68,0,.41.41,0,0,1-.15-.29m3.58,0a.37.37,0,0,1,.13-.29.47.47,0,0,1,.34-.13.58.58,0,0,1,.34.11.37.37,0,0,1,.15.3.41.41,0,0,1-.13.3.53.53,0,0,1-.35.12.49.49,0,0,1-.34-.12.37.37,0,0,1-.14-.29" transform="translate(10.47 0)"/><path class="cls-3" d="M305,53.31l-.1,0-.32.07a3.15,3.15,0,0,1-.46,0h-.16v-.31h.16a2.93,2.93,0,0,0,.69-.11,2.39,2.39,0,0,0,.45-.16l.22-.15s0,0,.1,0a.2.2,0,0,1,.13,0v4.13l.1.06.19,0h.7v.32h-.09c-.11,0-.53,0-1.27,0s-1.14,0-1.25,0H304V57h.71l.13,0,.07,0,0,0s.05,0,.05,0Z" transform="translate(10.47 0)"/><path class="cls-3" d="M307.49,20.09c0-.05.05-.07.15-.07h.21l.11.11A13.16,13.16,0,0,1,309.39,22a11.15,11.15,0,0,1,1.06,2,17.2,17.2,0,0,1,.7,2,14.71,14.71,0,0,1,.44,2.08c.11.73.18,1.4.23,2s.07,1.26.08,2v.41c0,.05,0,.07,0,.08H311s0,0,0-.05a1.37,1.37,0,0,1,0-.26,27.19,27.19,0,0,0-.69-6.55A14,14,0,0,0,308,20.82c-.06-.1-.17-.24-.31-.42s-.22-.28-.24-.31" transform="translate(10.47 0)"/><path class="cls-3" d="M307.69,59h0c-.11,0-.16,0-.16-.06l.05-.09c.17-.2.34-.41.51-.65a13.81,13.81,0,0,0,2.16-4.81,28.18,28.18,0,0,0,.69-6.55c0-.19,0-.3,0-.31h.92a.09.09,0,0,1,0,.08V47c0,.84,0,1.63-.1,2.35a23.08,23.08,0,0,1-.34,2.43,16.14,16.14,0,0,1-.68,2.49,14.47,14.47,0,0,1-1.14,2.36A11.15,11.15,0,0,1,308,58.9l-.11.11h-.16Z" transform="translate(10.47 0)"/><path class="cls-3" d="M311.87,51.05h-.05l-.15,0a.41.41,0,0,1-.27,0c-.29,0-.44,0-.46,0a.61.61,0,0,1,0-.15c0-.24,0-1.89,0-4.92V28.14l0-.15s.19,0,.56,0h.32s0,0,0,0a2.16,2.16,0,0,1,0,.63V46q0,5.07,0,5.07" transform="translate(10.47 0)"/><path class="cls-3" d="M322.85,40.83a.37.37,0,0,1,.14-.29.49.49,0,0,1,.34-.12.52.52,0,0,1,.33.11.38.38,0,0,1,.16.3.38.38,0,0,1-.14.29.47.47,0,0,1-.34.13.51.51,0,0,1-.35-.12.39.39,0,0,1-.14-.3m3.57,0a.4.4,0,0,1,.14-.29.49.49,0,0,1,.34-.12.58.58,0,0,1,.34.11.4.4,0,0,1,.15.3.38.38,0,0,1-.14.29.45.45,0,0,1-.34.13.51.51,0,0,1-.35-.12.43.43,0,0,1-.14-.3m3.57,0a.4.4,0,0,1,.14-.29.49.49,0,0,1,.34-.12.58.58,0,0,1,.34.11.4.4,0,0,1,.15.3.38.38,0,0,1-.14.29.45.45,0,0,1-.34.13.49.49,0,0,1-.34-.12.4.4,0,0,1-.15-.3" transform="translate(10.47 0)"/><path class="cls-3" d="M339.61,20a.12.12,0,0,1,.05.06,1.47,1.47,0,0,1-.2.27,7,7,0,0,0-.52.72,12.24,12.24,0,0,0-.69,1.11,10.26,10.26,0,0,0-.74,1.63,16.74,16.74,0,0,0-.64,2.11,27.89,27.89,0,0,0-.62,6.26,1.3,1.3,0,0,1,0,.26s0,.05,0,.05h-.91a.07.07,0,0,1,0-.07V32c0-.84,0-1.62.1-2.35a23.08,23.08,0,0,1,.34-2.43,15.71,15.71,0,0,1,.68-2.48,14.17,14.17,0,0,1,1.14-2.37,11.44,11.44,0,0,1,1.68-2.23l0,0,0,0,0,0h.33Z" transform="translate(10.47 0)"/><path class="cls-3" d="M339.66,59s0,0-.05.06h-.3l-.12-.12a13.78,13.78,0,0,1-1.44-1.81,12.27,12.27,0,0,1-1.05-2,17.2,17.2,0,0,1-.7-2,14.71,14.71,0,0,1-.44-2.08c-.11-.73-.18-1.4-.23-2s-.07-1.26-.08-2v-.41s0-.07,0-.08h.91s0,0,0,.05a1.37,1.37,0,0,1,0,.26,26.62,26.62,0,0,0,.8,7,13.47,13.47,0,0,0,2.53,5c.05.06.08.1.08.12" transform="translate(10.47 0)"/><path class="cls-3" d="M336.22,51.05h-.05l-.15,0a.41.41,0,0,1-.27,0c-.29,0-.44,0-.46,0a.61.61,0,0,1,0-.15c0-.24,0-1.89,0-4.92V28.14l0-.15s.19,0,.56,0h.32s0,0,0,0a2.51,2.51,0,0,1,0,.63c0,.42,0,1.9,0,4.44V46q0,5.07,0,5.07" transform="translate(10.47 0)"/><path class="cls-3" d="M341.61,21.2l-.1,0-.32.07-.46.05h-.16V21h.16a2.93,2.93,0,0,0,.69-.11,2.39,2.39,0,0,0,.45-.16l.22-.15s.05,0,.1,0a.2.2,0,0,1,.13,0v4.13l.1.06.19,0h.7v.32h-.08c-.12,0-.54,0-1.27,0s-1.15,0-1.26,0h-.1v-.32h.72l.12,0,.07,0,.05,0,0,0Z" transform="translate(10.47 0)"/><path class="cls-3" d="M352.66,21.16a1.47,1.47,0,0,1,1.22-.56,1.77,1.77,0,0,1,.77.18,1.35,1.35,0,0,1,.62.63,3.43,3.43,0,0,1,.3,1.57,3.18,3.18,0,0,1-.34,1.64,1.46,1.46,0,0,1-.93.67,1.89,1.89,0,0,1-.82,0,1.55,1.55,0,0,1-.49-.22,1.29,1.29,0,0,1-.44-.46,3.18,3.18,0,0,1-.34-1.64,3.07,3.07,0,0,1,.45-1.82m1.8-.09a.85.85,0,0,0-1.14,0,.9.9,0,0,0-.27.5,8.93,8.93,0,0,0-.06,1.32,10.64,10.64,0,0,0,.06,1.44,1,1,0,0,0,.29.54.83.83,0,0,0,1.1,0,.89.89,0,0,0,.28-.58,11.78,11.78,0,0,0,.07-1.4,7.27,7.27,0,0,0-.07-1.31.92.92,0,0,0-.26-.51" transform="translate(10.47 0)"/><path class="cls-3" d="M364.94,24.78a.38.38,0,0,1,.14-.29.45.45,0,0,1,.34-.13.58.58,0,0,1,.34.11.44.44,0,0,1,.15.3.41.41,0,0,1-.14.3.54.54,0,0,1-.68,0,.36.36,0,0,1-.15-.29m3.57,0a.38.38,0,0,1,.14-.29.45.45,0,0,1,.34-.13.58.58,0,0,1,.34.11.44.44,0,0,1,.15.3.41.41,0,0,1-.14.3.54.54,0,0,1-.68,0,.4.4,0,0,1-.15-.29m3.57,0a.38.38,0,0,1,.14-.29.45.45,0,0,1,.34-.13.58.58,0,0,1,.34.11.44.44,0,0,1,.15.3.37.37,0,0,1-.14.3.54.54,0,0,1-.68,0,.4.4,0,0,1-.15-.29" transform="translate(10.47 0)"/><path class="cls-3" d="M382.88,21.16a1.44,1.44,0,0,1,1.22-.56,1.84,1.84,0,0,1,.77.18,1.4,1.4,0,0,1,.62.63,3.44,3.44,0,0,1,.29,1.57,3.18,3.18,0,0,1-.34,1.64,1.22,1.22,0,0,1-.44.46,1.24,1.24,0,0,1-.49.21,1.83,1.83,0,0,1-.4.05,2,2,0,0,1-.42,0,1.55,1.55,0,0,1-.49-.22,1.38,1.38,0,0,1-.44-.46,3.29,3.29,0,0,1-.34-1.64,3,3,0,0,1,.46-1.82m1.79-.09a.82.82,0,0,0-.56-.22.85.85,0,0,0-.58.22.89.89,0,0,0-.26.5,8.46,8.46,0,0,0-.07,1.32,10.08,10.08,0,0,0,.07,1.44.89.89,0,0,0,.29.54.75.75,0,0,0,.55.21.76.76,0,0,0,.54-.21,1,1,0,0,0,.29-.58,10.43,10.43,0,0,0,.06-1.4,8.86,8.86,0,0,0-.06-1.31.87.87,0,0,0-.27-.51" transform="translate(10.47 0)"/><path class="cls-3" d="M340.68,30.09a1.46,1.46,0,0,1,1.22-.56,1.8,1.8,0,0,1,.77.18,1.4,1.4,0,0,1,.62.63,3.44,3.44,0,0,1,.3,1.58,3.16,3.16,0,0,1-.35,1.63,1.14,1.14,0,0,1-.44.46,1.51,1.51,0,0,1-.48.22l-.41.05a2,2,0,0,1-.42-.05A1.25,1.25,0,0,1,341,34a1.21,1.21,0,0,1-.44-.46,3.16,3.16,0,0,1-.35-1.63,3.05,3.05,0,0,1,.46-1.83m1.8-.09a.86.86,0,0,0-1.15,0,.89.89,0,0,0-.26.5,9,9,0,0,0-.06,1.33,10.56,10.56,0,0,0,.06,1.43,1,1,0,0,0,.29.55.84.84,0,0,0,1.09,0,1,1,0,0,0,.29-.58,10.64,10.64,0,0,0,.06-1.4,8.93,8.93,0,0,0-.06-1.32,1,1,0,0,0-.26-.51" transform="translate(10.47 0)"/><path class="cls-3" d="M353.6,30.14l-.11,0a2.34,2.34,0,0,1-.32.07l-.46.05h-.15V30h.15a3.11,3.11,0,0,0,.7-.1,1.91,1.91,0,0,0,.44-.17l.23-.15a.14.14,0,0,1,.09,0,.25.25,0,0,1,.14,0V33.7a.24.24,0,0,0,.09.07l.19,0,.5,0h.21v.31h-.09c-.11,0-.54,0-1.27,0s-1.14,0-1.26,0h-.09v-.31h.71l.13,0h.06l.05,0,.05,0Z" transform="translate(10.47 0)"/><path class="cls-3" d="M364.94,33.71a.38.38,0,0,1,.14-.29.49.49,0,0,1,.34-.12.51.51,0,0,1,.34.11.4.4,0,0,1,.15.29.39.39,0,0,1-.14.3.49.49,0,0,1-.34.12.53.53,0,0,1-.34-.11.4.4,0,0,1-.15-.3m3.57,0a.38.38,0,0,1,.14-.29.49.49,0,0,1,.34-.12.51.51,0,0,1,.34.11.4.4,0,0,1,.15.29.39.39,0,0,1-.14.3.49.49,0,0,1-.34.12.53.53,0,0,1-.34-.11.44.44,0,0,1-.15-.3m3.57,0a.38.38,0,0,1,.14-.29.49.49,0,0,1,.34-.12.51.51,0,0,1,.34.11.4.4,0,0,1,.15.29.36.36,0,0,1-.14.3.49.49,0,0,1-.34.12.53.53,0,0,1-.34-.11.44.44,0,0,1-.15-.3" transform="translate(10.47 0)"/><path class="cls-3" d="M382.88,30.09a1.44,1.44,0,0,1,1.22-.56,1.84,1.84,0,0,1,.77.18,1.4,1.4,0,0,1,.62.63,3.45,3.45,0,0,1,.29,1.58,3.17,3.17,0,0,1-.34,1.63A1.22,1.22,0,0,1,385,34a1.46,1.46,0,0,1-.49.22l-.4.05a2,2,0,0,1-.42-.05,1.35,1.35,0,0,1-.49-.22,1.38,1.38,0,0,1-.44-.46,3.27,3.27,0,0,1-.34-1.63,3.05,3.05,0,0,1,.46-1.83m1.79-.09a.82.82,0,0,0-.56-.22.85.85,0,0,0-.58.22.89.89,0,0,0-.26.5,8.53,8.53,0,0,0-.07,1.33,10,10,0,0,0,.07,1.43,1,1,0,0,0,.29.55.79.79,0,0,0,.55.2.8.8,0,0,0,.54-.2,1,1,0,0,0,.29-.58,10.64,10.64,0,0,0,.06-1.4,8.93,8.93,0,0,0-.06-1.32.91.91,0,0,0-.27-.51" transform="translate(10.47 0)"/><path class="cls-3" d="M341.42,48.16a.38.38,0,0,1,.14-.29.49.49,0,0,1,.34-.12.51.51,0,0,1,.34.11.4.4,0,0,1,.15.29.39.39,0,0,1-.14.3.49.49,0,0,1-.34.12.48.48,0,0,1-.34-.11.4.4,0,0,1-.15-.3m0-2.83a.4.4,0,0,1,.14-.29.49.49,0,0,1,.34-.12.58.58,0,0,1,.34.11.4.4,0,0,1,.15.3.38.38,0,0,1-.14.29.49.49,0,0,1-.34.13.49.49,0,0,1-.34-.12.4.4,0,0,1-.15-.3m0-2.76a.4.4,0,0,1,.14-.29.49.49,0,0,1,.34-.12.58.58,0,0,1,.34.11.4.4,0,0,1,.15.3.38.38,0,0,1-.14.29.45.45,0,0,1-.34.13.49.49,0,0,1-.34-.12.4.4,0,0,1-.15-.3" transform="translate(10.47 0)"/><path class="cls-3" d="M353.41,48.16a.37.37,0,0,1,.13-.29.5.5,0,0,1,.34-.12.51.51,0,0,1,.34.11.34.34,0,0,1,.15.29.38.38,0,0,1-.13.3.51.51,0,0,1-.35.12.48.48,0,0,1-.34-.11.39.39,0,0,1-.14-.3m0-2.83a.39.39,0,0,1,.13-.29.5.5,0,0,1,.34-.12.58.58,0,0,1,.34.11.34.34,0,0,1,.15.3.37.37,0,0,1-.13.29.52.52,0,0,1-.35.13.49.49,0,0,1-.34-.12.39.39,0,0,1-.14-.3m0-2.76a.39.39,0,0,1,.13-.29.5.5,0,0,1,.34-.12.58.58,0,0,1,.34.11.34.34,0,0,1,.15.3.37.37,0,0,1-.13.29.48.48,0,0,1-.35.13.49.49,0,0,1-.34-.12.39.39,0,0,1-.14-.3" transform="translate(10.47 0)"/><path class="cls-3" d="M364.94,43.12a.4.4,0,0,1,.14-.29.49.49,0,0,1,.34-.12.58.58,0,0,1,.34.11.4.4,0,0,1,.15.3.38.38,0,0,1-.14.29.45.45,0,0,1-.34.13.49.49,0,0,1-.34-.12.4.4,0,0,1-.15-.3m3.57,2.07a.4.4,0,0,1,.14-.29.49.49,0,0,1,.34-.12.58.58,0,0,1,.34.11.4.4,0,0,1,.15.3.38.38,0,0,1-.14.29.45.45,0,0,1-.34.13.49.49,0,0,1-.34-.12.44.44,0,0,1-.15-.3m3.57,2.07a.4.4,0,0,1,.14-.29.49.49,0,0,1,.34-.12.58.58,0,0,1,.34.11.4.4,0,0,1,.15.3.35.35,0,0,1-.14.29.45.45,0,0,1-.34.13.49.49,0,0,1-.34-.12.44.44,0,0,1-.15-.3" transform="translate(10.47 0)"/><path class="cls-3" d="M383.62,48.16a.38.38,0,0,1,.14-.29.49.49,0,0,1,.34-.12.47.47,0,0,1,.33.11.37.37,0,0,1,.16.29.39.39,0,0,1-.14.3.49.49,0,0,1-.34.12.51.51,0,0,1-.35-.11.39.39,0,0,1-.14-.3m0-2.83a.4.4,0,0,1,.14-.29.49.49,0,0,1,.34-.12.52.52,0,0,1,.33.11.38.38,0,0,1,.16.3.38.38,0,0,1-.14.29.49.49,0,0,1-.34.13.51.51,0,0,1-.35-.12.39.39,0,0,1-.14-.3m0-2.76a.4.4,0,0,1,.14-.29.49.49,0,0,1,.34-.12.52.52,0,0,1,.33.11.38.38,0,0,1,.16.3.38.38,0,0,1-.14.29.45.45,0,0,1-.34.13.51.51,0,0,1-.35-.12.39.39,0,0,1-.14-.3" transform="translate(10.47 0)"/><path class="cls-3" d="M340.68,53.26a1.47,1.47,0,0,1,1.22-.55,1.8,1.8,0,0,1,.77.18,1.35,1.35,0,0,1,.62.63,3.43,3.43,0,0,1,.3,1.57,3.17,3.17,0,0,1-.35,1.64,1.14,1.14,0,0,1-.44.46,1.27,1.27,0,0,1-.48.21,1.93,1.93,0,0,1-.83,0,1.42,1.42,0,0,1-.48-.22,1.21,1.21,0,0,1-.44-.46,3.17,3.17,0,0,1-.35-1.64,3.05,3.05,0,0,1,.46-1.83m1.8-.08a.86.86,0,0,0-1.15,0,.89.89,0,0,0-.26.5A8.93,8.93,0,0,0,341,55a10.64,10.64,0,0,0,.06,1.44.89.89,0,0,0,.29.54.81.81,0,0,0,1.09,0,.9.9,0,0,0,.29-.58,10.43,10.43,0,0,0,.06-1.4,8.86,8.86,0,0,0-.06-1.31.92.92,0,0,0-.26-.51" transform="translate(10.47 0)"/><path class="cls-3" d="M352.66,53.26a1.49,1.49,0,0,1,1.22-.55,1.77,1.77,0,0,1,.77.18,1.31,1.31,0,0,1,.62.63,3.43,3.43,0,0,1,.3,1.57,3.18,3.18,0,0,1-.34,1.64,1.46,1.46,0,0,1-.93.67,1.89,1.89,0,0,1-.82,0,1.55,1.55,0,0,1-.49-.22,1.29,1.29,0,0,1-.44-.46,3.18,3.18,0,0,1-.34-1.64,3.13,3.13,0,0,1,.45-1.83m1.8-.08a.85.85,0,0,0-1.14,0,.9.9,0,0,0-.27.5A8.93,8.93,0,0,0,353,55a10.64,10.64,0,0,0,.06,1.44,1,1,0,0,0,.29.54.83.83,0,0,0,1.1,0,.89.89,0,0,0,.28-.58,11.78,11.78,0,0,0,.07-1.4,7.27,7.27,0,0,0-.07-1.31.92.92,0,0,0-.26-.51" transform="translate(10.47 0)"/><path class="cls-3" d="M364.94,56.89a.38.38,0,0,1,.14-.29.45.45,0,0,1,.34-.13.58.58,0,0,1,.34.11.44.44,0,0,1,.15.3.42.42,0,0,1-.14.3.54.54,0,0,1-.68,0,.38.38,0,0,1-.15-.29m3.57,0a.38.38,0,0,1,.14-.29.45.45,0,0,1,.34-.13.58.58,0,0,1,.34.11.44.44,0,0,1,.15.3.42.42,0,0,1-.14.3.54.54,0,0,1-.68,0,.41.41,0,0,1-.15-.29m3.57,0a.38.38,0,0,1,.14-.29.45.45,0,0,1,.34-.13.58.58,0,0,1,.34.11.44.44,0,0,1,.15.3.39.39,0,0,1-.14.3.54.54,0,0,1-.68,0,.41.41,0,0,1-.15-.29" transform="translate(10.47 0)"/><path class="cls-3" d="M383.81,53.31l-.1,0-.32.07a3.3,3.3,0,0,1-.47,0h-.15v-.31h.15a3,3,0,0,0,.7-.11,2.39,2.39,0,0,0,.45-.16l.22-.15s0,0,.1,0a.22.22,0,0,1,.13,0v4.13l.1.06.19,0h.7v.32h-.09c-.11,0-.53,0-1.27,0s-1.14,0-1.25,0h-.1V57h.71l.13,0,.07,0,0,0s.05,0,.05,0Z" transform="translate(10.47 0)"/><path class="cls-3" d="M386.35,20.09c0-.05,0-.07.15-.07h.2l.12.11A13.16,13.16,0,0,1,388.25,22a11.84,11.84,0,0,1,1.06,2,17.2,17.2,0,0,1,.7,2,16.26,16.26,0,0,1,.44,2.08c.11.73.18,1.4.22,2s.08,1.26.09,2v.41c0,.05,0,.07-.05.08h-.91s0,0,0-.05v-.26a27.19,27.19,0,0,0-.69-6.55,14,14,0,0,0-2.17-4.81l-.31-.42-.24-.31" transform="translate(10.47 0)"/><path class="cls-3" d="M386.55,59h-.05q-.15,0-.15-.06l0-.09a6.94,6.94,0,0,0,.5-.65,13.82,13.82,0,0,0,2.17-4.81,28.18,28.18,0,0,0,.69-6.55c0-.19,0-.3,0-.31h.91s0,0,0,.08,0,.18,0,.41c0,.84,0,1.63-.1,2.35a23.08,23.08,0,0,1-.34,2.43,17.35,17.35,0,0,1-.68,2.49,15.34,15.34,0,0,1-1.14,2.36,11.15,11.15,0,0,1-1.68,2.23l-.12.11h-.15Z" transform="translate(10.47 0)"/><path class="cls-3" d="M390.73,51.05h-.05l-.15,0a.41.41,0,0,1-.27,0c-.29,0-.44,0-.46,0a.61.61,0,0,1,0-.15c0-.24,0-1.89,0-4.92V28.14l0-.15s.19,0,.56,0h.32s0,0,0,0a2.51,2.51,0,0,1,0,.63c0,.42,0,1.9,0,4.44V46q0,5.07,0,5.07" transform="translate(10.47 0)"/><path class="cls-3" d="M190,64.51a4.47,4.47,0,0,1,.08-.91,4.87,4.87,0,0,1,.18-.73,2.65,2.65,0,0,1,.3-.61c.12-.2.22-.35.3-.46a2.08,2.08,0,0,1,.33-.36l.27-.24.2-.14h.13q.12,0,.12.06a.76.76,0,0,1-.14.14,4.83,4.83,0,0,0-.33.37,4.31,4.31,0,0,0-.39.59,3.8,3.8,0,0,0-.33,1,5.49,5.49,0,0,0-.14,1.33,5.4,5.4,0,0,0,.14,1.32,3.83,3.83,0,0,0,.32,1,3.35,3.35,0,0,0,.39.59l.34.37.14.14s0,.07-.12.07h-.13l-.23-.17a3.41,3.41,0,0,1-1.09-1.46,4.94,4.94,0,0,1-.34-1.82" transform="translate(10.47 0)"/><path class="cls-3" d="M194,62.24l-.1,0a2.34,2.34,0,0,1-.32.07l-.46,0H193v-.32h.15a2.94,2.94,0,0,0,.69-.1,2,2,0,0,0,.45-.17,1.39,1.39,0,0,0,.22-.15s.05,0,.1,0a.25.25,0,0,1,.14,0v4.13l.1.06.19,0h.7v.32h-.08c-.12,0-.54,0-1.27,0s-1.15,0-1.26,0H193v-.32h.71l.12,0,.07,0,.05,0,0,0Z" transform="translate(10.47 0)"/><path class="cls-3" d="M206,62.24l-.11,0-.31.07-.47,0H205v-.32h.15a3.11,3.11,0,0,0,.7-.1,1.91,1.91,0,0,0,.44-.17l.23-.15s0,0,.09,0a.23.23,0,0,1,.14,0v4.13a.35.35,0,0,0,.09.06l.2,0h.7v.32h-.09c-.11,0-.54,0-1.27,0s-1.14,0-1.25,0H205v-.32h.71l.13,0,.06,0,.05,0,.05,0Z" transform="translate(10.47 0)"/><path class="cls-3" d="M216.89,65.82a.38.38,0,0,1,.14-.29.49.49,0,0,1,.34-.13.52.52,0,0,1,.34.12.4.4,0,0,1,.15.29.36.36,0,0,1-.14.3.49.49,0,0,1-.34.12.53.53,0,0,1-.34-.11.44.44,0,0,1-.15-.3m3.58,0a.37.37,0,0,1,.13-.29.51.51,0,0,1,.34-.13.52.52,0,0,1,.34.12.34.34,0,0,1,.15.29.38.38,0,0,1-.13.3.51.51,0,0,1-.35.12.53.53,0,0,1-.34-.11.39.39,0,0,1-.14-.3m3.57,0a.37.37,0,0,1,.13-.29.52.52,0,0,1,.35-.13.5.5,0,0,1,.33.12.34.34,0,0,1,.15.29.38.38,0,0,1-.13.3.51.51,0,0,1-.35.12.55.55,0,0,1-.34-.11.39.39,0,0,1-.14-.3" transform="translate(10.47 0)"/><path class="cls-3" d="M235.32,62.24l-.1,0a2.34,2.34,0,0,1-.32.07l-.46,0h-.15v-.32h.15a2.94,2.94,0,0,0,.69-.1,2,2,0,0,0,.45-.17,1.39,1.39,0,0,0,.22-.15s0,0,.1,0a.25.25,0,0,1,.14,0v4.13l.1.06.19,0h.7v.32H237c-.12,0-.54,0-1.27,0s-1.15,0-1.26,0h-.09v-.32H235l.12,0,.07,0,.05,0,0,0Z" transform="translate(10.47 0)"/><path class="cls-3" d="M238.1,61.06h.2l.23.16a3.39,3.39,0,0,1,1.09,1.47,4.91,4.91,0,0,1,.35,1.82,5.29,5.29,0,0,1-.08.9,6,6,0,0,1-.19.74,3.72,3.72,0,0,1-.29.61l-.31.46a2.36,2.36,0,0,1-.32.35l-.26.23-.18.13,0,0h-.18a.05.05,0,0,1,0,0,.14.14,0,0,1,0-.07l.08-.09a4.94,4.94,0,0,0,0-6.55l-.08-.09a.08.08,0,0,1,0-.08" transform="translate(10.47 0)"/><path class="cls-3" d="M259.14,64.51a4.47,4.47,0,0,1,.08-.91,4.87,4.87,0,0,1,.18-.73,2.65,2.65,0,0,1,.3-.61c.12-.2.22-.35.3-.46a1.74,1.74,0,0,1,.33-.36l.27-.24a1,1,0,0,1,.2-.14h.13q.12,0,.12.06a.76.76,0,0,1-.14.14,4.83,4.83,0,0,0-.33.37,4.31,4.31,0,0,0-.39.59,4.2,4.2,0,0,0-.34,1,6.06,6.06,0,0,0-.13,1.33,6,6,0,0,0,.13,1.32,4.24,4.24,0,0,0,.33,1,3.35,3.35,0,0,0,.39.59l.34.37.14.14s0,.07-.12.07h-.13l-.23-.17a3.41,3.41,0,0,1-1.09-1.46,4.94,4.94,0,0,1-.34-1.82" transform="translate(10.47 0)"/><path class="cls-3" d="M263.19,62.24l-.1,0a2.34,2.34,0,0,1-.32.07l-.46,0h-.16v-.32h.16A2.94,2.94,0,0,0,263,62a2.26,2.26,0,0,0,.45-.17l.22-.15s.05,0,.1,0a.2.2,0,0,1,.13,0v4.13l.1.06.19,0h.7v.32h-.08c-.12,0-.54,0-1.27,0s-1.15,0-1.26,0h-.1v-.32h.72l.12,0,.07,0,0,0,0,0Z" transform="translate(10.47 0)"/><path class="cls-3" d="M275.18,62.24l-.11,0a2.34,2.34,0,0,1-.32.07l-.46,0h-.15v-.32h.15a3.11,3.11,0,0,0,.7-.1,1.91,1.91,0,0,0,.44-.17l.23-.15s0,0,.09,0a.23.23,0,0,1,.14,0v4.13l.09.06.19,0h.71v.32h-.09c-.11,0-.54,0-1.27,0s-1.14,0-1.26,0h-.09v-.32h.71l.13,0,.06,0,.05,0,.05,0Z" transform="translate(10.47 0)"/><path class="cls-3" d="M286.08,65.82a.38.38,0,0,1,.14-.29.49.49,0,0,1,.34-.13.52.52,0,0,1,.34.12.4.4,0,0,1,.15.29.39.39,0,0,1-.14.3.49.49,0,0,1-.34.12.53.53,0,0,1-.34-.11.44.44,0,0,1-.15-.3m3.57,0a.38.38,0,0,1,.14-.29.49.49,0,0,1,.34-.13.52.52,0,0,1,.34.12.36.36,0,0,1,.15.29.36.36,0,0,1-.14.3.49.49,0,0,1-.34.12.53.53,0,0,1-.34-.11.44.44,0,0,1-.15-.3m3.58,0a.37.37,0,0,1,.13-.29.51.51,0,0,1,.34-.13.52.52,0,0,1,.34.12.34.34,0,0,1,.15.29.38.38,0,0,1-.13.3.58.58,0,0,1-.69,0,.39.39,0,0,1-.14-.3" transform="translate(10.47 0)"/><path class="cls-3" d="M304.51,62.24l-.1,0a2.34,2.34,0,0,1-.32.07l-.46,0h-.16v-.32h.16a2.94,2.94,0,0,0,.69-.1,2.26,2.26,0,0,0,.45-.17l.22-.15s.05,0,.1,0a.2.2,0,0,1,.13,0v4.13l.1.06.19,0h.7v.32h-.08c-.12,0-.54,0-1.27,0s-1.15,0-1.26,0h-.1v-.32h.72l.12,0,.07,0,.05,0,0,0Z" transform="translate(10.47 0)"/><path class="cls-3" d="M307.29,61.06h.2l.23.16a3.39,3.39,0,0,1,1.09,1.47,4.91,4.91,0,0,1,.35,1.82,5.29,5.29,0,0,1-.08.9,6,6,0,0,1-.19.74,3.72,3.72,0,0,1-.29.61l-.31.46a2,2,0,0,1-.33.35l-.25.23-.18.13,0,0h-.18l0,0a.14.14,0,0,1,0-.07l.08-.09a4.94,4.94,0,0,0,0-6.55l-.08-.09a.08.08,0,0,1,0-.08" transform="translate(10.47 0)"/><path class="cls-3" d="M327.17,65.82a.38.38,0,0,1,.14-.29.49.49,0,0,1,.34-.13.52.52,0,0,1,.34.12.4.4,0,0,1,.15.29.39.39,0,0,1-.14.3.49.49,0,0,1-.34.12.58.58,0,0,1-.35-.11.43.43,0,0,1-.14-.3m3.57,0a.38.38,0,0,1,.14-.29.49.49,0,0,1,.34-.13.52.52,0,0,1,.34.12.4.4,0,0,1,.15.29.39.39,0,0,1-.14.3.49.49,0,0,1-.34.12.53.53,0,0,1-.34-.11.44.44,0,0,1-.15-.3m3.57,0a.38.38,0,0,1,.14-.29.49.49,0,0,1,.34-.13.52.52,0,0,1,.34.12.4.4,0,0,1,.15.29.39.39,0,0,1-.14.3.49.49,0,0,1-.34.12.53.53,0,0,1-.34-.11.44.44,0,0,1-.15-.3" transform="translate(10.47 0)"/><path class="cls-3" d="M338,64.51a5.31,5.31,0,0,1,.08-.91,6.33,6.33,0,0,1,.19-.73,2.61,2.61,0,0,1,.29-.61l.31-.46a1.74,1.74,0,0,1,.33-.36l.27-.24a1,1,0,0,1,.2-.14h.13c.08,0,.11,0,.11.06a.54.54,0,0,1-.13.14,4.83,4.83,0,0,0-.33.37,4.31,4.31,0,0,0-.39.59,3.42,3.42,0,0,0-.34,1,6.06,6.06,0,0,0-.13,1.33,6,6,0,0,0,.13,1.32,3.8,3.8,0,0,0,.33,1,3.35,3.35,0,0,0,.39.59,4.64,4.64,0,0,0,.34.37l.13.14s0,.07-.12.07h-.12l-.23-.17a3.41,3.41,0,0,1-1.09-1.46,5,5,0,0,1-.35-1.82" transform="translate(10.47 0)"/><path class="cls-3" d="M342.05,62.24l-.1,0a2.74,2.74,0,0,1-.32.07l-.46,0H341v-.32h.16a2.94,2.94,0,0,0,.69-.1,2.26,2.26,0,0,0,.45-.17l.22-.15s0,0,.1,0a.2.2,0,0,1,.13,0v4.13l.1.06.19,0h.7v.32h-.09c-.11,0-.53,0-1.27,0s-1.14,0-1.25,0h-.1v-.32h.71l.13,0,.07,0,0,0,.05,0Z" transform="translate(10.47 0)"/><path class="cls-3" d="M354,62.24l-.11,0a2.34,2.34,0,0,1-.32.07l-.46,0H353v-.32h.15a2.94,2.94,0,0,0,.69-.1,1.85,1.85,0,0,0,.45-.17,1.39,1.39,0,0,0,.22-.15s.05,0,.1,0a.25.25,0,0,1,.14,0v4.13a.24.24,0,0,0,.09.06l.19,0h.71v.32h-.09c-.11,0-.54,0-1.27,0s-1.14,0-1.26,0H353v-.32h.71l.13,0,.06,0,.05,0,.05,0Z" transform="translate(10.47 0)"/><path class="cls-3" d="M364.94,65.82a.38.38,0,0,1,.14-.29.49.49,0,0,1,.34-.13.52.52,0,0,1,.34.12.4.4,0,0,1,.15.29.39.39,0,0,1-.14.3.49.49,0,0,1-.34.12.53.53,0,0,1-.34-.11.4.4,0,0,1-.15-.3m3.57,0a.38.38,0,0,1,.14-.29.49.49,0,0,1,.34-.13.52.52,0,0,1,.34.12.4.4,0,0,1,.15.29.39.39,0,0,1-.14.3.49.49,0,0,1-.34.12.53.53,0,0,1-.34-.11.44.44,0,0,1-.15-.3m3.57,0a.38.38,0,0,1,.14-.29.49.49,0,0,1,.34-.13.52.52,0,0,1,.34.12.4.4,0,0,1,.15.29.36.36,0,0,1-.14.3.49.49,0,0,1-.34.12.53.53,0,0,1-.34-.11.44.44,0,0,1-.15-.3" transform="translate(10.47 0)"/><path class="cls-3" d="M383.37,62.24l-.1,0a2.74,2.74,0,0,1-.32.07l-.46,0h-.16v-.32h.16a2.94,2.94,0,0,0,.69-.1,2.26,2.26,0,0,0,.45-.17l.22-.15s0,0,.1,0a.2.2,0,0,1,.13,0v4.13l.1.06.19,0h.7v.32H385c-.11,0-.53,0-1.27,0s-1.14,0-1.25,0h-.1v-.32h.71l.13,0,.07,0,0,0,.05,0Z" transform="translate(10.47 0)"/><path class="cls-3" d="M386.14,61.06h.21l.23.16a3.39,3.39,0,0,1,1.09,1.47,4.9,4.9,0,0,1,.34,1.82,4.43,4.43,0,0,1-.08.9,4.73,4.73,0,0,1-.18.74,3.72,3.72,0,0,1-.29.61l-.31.46a2,2,0,0,1-.33.35c-.14.13-.23.2-.25.23l-.19.13,0,0h-.18a.05.05,0,0,1,0,0l0-.07.09-.09a4.94,4.94,0,0,0,0-6.55l-.09-.09a.1.1,0,0,1,0-.08" transform="translate(10.47 0)"/><path class="cls-3" d="M217.47,78.75a.38.38,0,0,1,.14-.29.49.49,0,0,1,.34-.12.51.51,0,0,1,.34.11.4.4,0,0,1,.15.29.39.39,0,0,1-.14.3.49.49,0,0,1-.34.13.49.49,0,0,1-.34-.12.44.44,0,0,1-.15-.3m0-2.83a.4.4,0,0,1,.14-.29.49.49,0,0,1,.34-.12.58.58,0,0,1,.34.11.4.4,0,0,1,.15.3.38.38,0,0,1-.14.29.45.45,0,0,1-.34.13.49.49,0,0,1-.34-.12.44.44,0,0,1-.15-.3m0-2.76a.4.4,0,0,1,.14-.29.49.49,0,0,1,.34-.12.58.58,0,0,1,.34.11.4.4,0,0,1,.15.3.38.38,0,0,1-.14.29.45.45,0,0,1-.34.13.49.49,0,0,1-.34-.12.44.44,0,0,1-.15-.3" transform="translate(10.47 0)"/><path class="cls-3" d="M187.6,86.17a5.55,5.55,0,0,1,.26-1.65,2.59,2.59,0,0,1,.3-.6l.3-.47a1.83,1.83,0,0,1,.34-.35,2.5,2.5,0,0,0,.26-.24l.2-.14h.14c.07,0,.11,0,.11.06a.76.76,0,0,1-.14.14,3.41,3.41,0,0,0-.32.37,5.44,5.44,0,0,0-.4.59,3.71,3.71,0,0,0-.33,1,6.13,6.13,0,0,0-.14,1.34,6,6,0,0,0,.14,1.32,3.8,3.8,0,0,0,.33,1A2.52,2.52,0,0,0,189,89c.13.15.24.28.33.37l.14.14s0,.07-.12.07h-.13l-.22-.17a3.44,3.44,0,0,1-1.1-1.46,4.94,4.94,0,0,1-.34-1.82" transform="translate(10.47 0)"/><path class="cls-3" d="M191.66,83.9l-.11,0-.32.07-.46,0h-.15v-.32h.15a3.1,3.1,0,0,0,.7-.11,2,2,0,0,0,.44-.16l.23-.15s0,0,.09,0a.23.23,0,0,1,.14,0v4.13a.35.35,0,0,0,.09.06l.19,0h.71v.32h-.09c-.11,0-.54,0-1.27,0s-1.14,0-1.26,0h-.09v-.32h.71l.13,0,.06,0,.05,0s0,0,0,0Z" transform="translate(10.47 0)"/><path class="cls-3" d="M203.64,83.9l-.1,0-.32.07-.47,0h-.15v-.32h.15a2.93,2.93,0,0,0,.7-.11,2.39,2.39,0,0,0,.45-.16l.22-.15s0,0,.1,0a.22.22,0,0,1,.13,0v4.13l.1.06.19,0h.7v.32h-.09c-.11,0-.53,0-1.27,0s-1.14,0-1.25,0h-.1v-.32h.71l.13,0,.07,0,0,0s0,0,0,0Z" transform="translate(10.47 0)"/><path class="cls-3" d="M214.55,87.48a.37.37,0,0,1,.13-.29.48.48,0,0,1,.35-.13.55.55,0,0,1,.33.11.37.37,0,0,1,.15.3.41.41,0,0,1-.13.3.51.51,0,0,1-.35.12.5.5,0,0,1-.34-.12.36.36,0,0,1-.14-.29m3.57,0a.37.37,0,0,1,.13-.29.48.48,0,0,1,.35-.13.55.55,0,0,1,.33.11.37.37,0,0,1,.15.3.41.41,0,0,1-.13.3.51.51,0,0,1-.35.12.5.5,0,0,1-.34-.12.36.36,0,0,1-.14-.29m3.57,0a.37.37,0,0,1,.13-.29.48.48,0,0,1,.35-.13.52.52,0,0,1,.33.11.37.37,0,0,1,.15.3.41.41,0,0,1-.13.3.5.5,0,0,1-.34.12.51.51,0,0,1-.35-.12.36.36,0,0,1-.14-.29" transform="translate(10.47 0)"/><path class="cls-3" d="M233,83.9l-.11,0-.32.07-.46,0h-.15v-.32h.15a3.1,3.1,0,0,0,.7-.11,2,2,0,0,0,.44-.16l.23-.15s0,0,.09,0a.23.23,0,0,1,.14,0v4.13a.35.35,0,0,0,.09.06l.19,0h.71v.32h-.09c-.11,0-.54,0-1.27,0s-1.14,0-1.26,0H232v-.32h.71l.13,0,.06,0,.05,0s0,0,0,0Z" transform="translate(10.47 0)"/><path class="cls-3" d="M235.75,82.72H236l.22.16a3.44,3.44,0,0,1,1.1,1.46,5.21,5.21,0,0,1,.34,1.83,5.29,5.29,0,0,1-.08.9,6.2,6.2,0,0,1-.18.74,3.12,3.12,0,0,1-.3.61l-.3.46a3.31,3.31,0,0,1-.33.35l-.26.23-.18.13,0,0h-.19l0,0a.14.14,0,0,1,0-.07l.09-.09a4.94,4.94,0,0,0,0-6.55l-.09-.09a.08.08,0,0,1,0-.08" transform="translate(10.47 0)"/><path class="cls-3" d="M283.09,87.48a.38.38,0,0,1,.14-.29.45.45,0,0,1,.34-.13.58.58,0,0,1,.34.11.44.44,0,0,1,.15.3.42.42,0,0,1-.14.3.49.49,0,0,1-.34.12.53.53,0,0,1-.35-.12.39.39,0,0,1-.14-.29m3.57,0a.38.38,0,0,1,.14-.29.45.45,0,0,1,.34-.13.58.58,0,0,1,.34.11.44.44,0,0,1,.15.3.42.42,0,0,1-.14.3.54.54,0,0,1-.68,0,.4.4,0,0,1-.15-.29m3.57,0a.38.38,0,0,1,.14-.29.45.45,0,0,1,.34-.13.58.58,0,0,1,.34.11.44.44,0,0,1,.15.3.42.42,0,0,1-.14.3.54.54,0,0,1-.68,0,.4.4,0,0,1-.15-.29" transform="translate(10.47 0)"/><path class="cls-3" d="M330.17,87.48a.38.38,0,0,1,.14-.29.45.45,0,0,1,.34-.13.58.58,0,0,1,.34.11.44.44,0,0,1,.15.3.42.42,0,0,1-.14.3.49.49,0,0,1-.34.12.53.53,0,0,1-.35-.12.39.39,0,0,1-.14-.29m3.57,0a.38.38,0,0,1,.14-.29.45.45,0,0,1,.34-.13.58.58,0,0,1,.34.11.44.44,0,0,1,.15.3.42.42,0,0,1-.14.3.54.54,0,0,1-.68,0,.4.4,0,0,1-.15-.29m3.57,0a.38.38,0,0,1,.14-.29.45.45,0,0,1,.34-.13.58.58,0,0,1,.34.11.44.44,0,0,1,.15.3.42.42,0,0,1-.14.3.54.54,0,0,1-.68,0,.4.4,0,0,1-.15-.29" transform="translate(10.47 0)"/><path class="cls-3" d="M341,86.17a5.31,5.31,0,0,1,.08-.91,7.16,7.16,0,0,1,.19-.74,2.55,2.55,0,0,1,.29-.6c.13-.2.23-.36.31-.47a1.5,1.5,0,0,1,.33-.35l.27-.24a1,1,0,0,1,.2-.14h.13c.08,0,.11,0,.11.06a.54.54,0,0,1-.13.14,4.83,4.83,0,0,0-.33.37,4.31,4.31,0,0,0-.39.59,3.35,3.35,0,0,0-.34,1,6.15,6.15,0,0,0-.13,1.34,6,6,0,0,0,.13,1.32,3.8,3.8,0,0,0,.33,1,3.35,3.35,0,0,0,.39.59l.34.37.13.14s0,.07-.12.07h-.12l-.23-.17A3.41,3.41,0,0,1,341.34,88a5,5,0,0,1-.35-1.82" transform="translate(10.47 0)"/><path class="cls-3" d="M345.05,83.9l-.1,0-.32.07-.46,0H344v-.32h.16a2.93,2.93,0,0,0,.69-.11,2.39,2.39,0,0,0,.45-.16l.22-.15s0,0,.1,0a.2.2,0,0,1,.13,0v4.13l.1.06.19,0h.7v.32h-.09c-.11,0-.53,0-1.27,0s-1.14,0-1.25,0h-.1v-.32h.71l.13,0,.07,0,0,0s.05,0,.05,0Z" transform="translate(10.47 0)"/><path class="cls-3" d="M357,83.9l-.11,0-.32.07-.46,0H356v-.32h.15a2.93,2.93,0,0,0,.69-.11,1.94,1.94,0,0,0,.45-.16,1.39,1.39,0,0,0,.22-.15s.05,0,.1,0a.25.25,0,0,1,.14,0v4.13a.24.24,0,0,0,.09.06l.19,0h.71v.32h-.09c-.11,0-.54,0-1.27,0s-1.14,0-1.26,0H356v-.32h.71l.13,0,.06,0,.05,0a.05.05,0,0,1,.05,0Z" transform="translate(10.47 0)"/><path class="cls-3" d="M367.94,87.48a.38.38,0,0,1,.14-.29.45.45,0,0,1,.34-.13.58.58,0,0,1,.34.11.44.44,0,0,1,.15.3.42.42,0,0,1-.14.3.54.54,0,0,1-.68,0,.36.36,0,0,1-.15-.29m3.57,0a.38.38,0,0,1,.14-.29.45.45,0,0,1,.34-.13.58.58,0,0,1,.34.11.44.44,0,0,1,.15.3.42.42,0,0,1-.14.3.54.54,0,0,1-.68,0,.4.4,0,0,1-.15-.29m3.57,0a.38.38,0,0,1,.14-.29.45.45,0,0,1,.34-.13.58.58,0,0,1,.34.11.44.44,0,0,1,.15.3.39.39,0,0,1-.14.3.54.54,0,0,1-.68,0,.4.4,0,0,1-.15-.29" transform="translate(10.47 0)"/><path class="cls-3" d="M386.37,83.9l-.1,0L386,84l-.46,0h-.16v-.32h.16a2.93,2.93,0,0,0,.69-.11,2.39,2.39,0,0,0,.45-.16l.22-.15s0,0,.1,0a.2.2,0,0,1,.13,0v4.13l.1.06.19,0h.7v.32H388c-.11,0-.53,0-1.27,0s-1.14,0-1.25,0h-.1v-.32h.71l.13,0,.07,0,0,0s.05,0,.05,0Z" transform="translate(10.47 0)"/><path class="cls-3" d="M389.14,82.72h.21l.23.16a3.41,3.41,0,0,1,1.09,1.46,5,5,0,0,1,.34,1.83,4.43,4.43,0,0,1-.08.9,4.73,4.73,0,0,1-.18.74,3.72,3.72,0,0,1-.29.61l-.31.46a2,2,0,0,1-.33.35c-.14.13-.23.2-.25.23l-.19.13,0,0h-.18a.05.05,0,0,1,0,0l0-.07.09-.09a4.94,4.94,0,0,0,0-6.55l-.09-.09a.1.1,0,0,1,0-.08" transform="translate(10.47 0)"/><path class="cls-3" d="M393.34,20.09c0-.05.05-.07.15-.07h.2l.12.11A13.16,13.16,0,0,1,395.24,22a11.84,11.84,0,0,1,1.06,2,17.2,17.2,0,0,1,.7,2,16.26,16.26,0,0,1,.44,2.08c.11.73.18,1.4.22,2s.08,1.26.09,2v.41c0,.05,0,.07-.05.08h-.91s0,0,0-.05v-.26a27.19,27.19,0,0,0-.69-6.55,14,14,0,0,0-2.17-4.81l-.31-.42-.24-.31" transform="translate(10.47 0)"/><path class="cls-3" d="M393.54,89.62h-.05c-.1,0-.15,0-.15-.07l.05-.09a5.84,5.84,0,0,0,.5-.65A13.82,13.82,0,0,0,396.06,84a28.18,28.18,0,0,0,.69-6.55c0-.19,0-.29,0-.31h.91s0,0,0,.08,0,.18,0,.41c0,.84,0,1.63-.1,2.35a23.08,23.08,0,0,1-.34,2.43,17.35,17.35,0,0,1-.68,2.49,15.34,15.34,0,0,1-1.14,2.36,11.15,11.15,0,0,1-1.68,2.23.46.46,0,0,1-.12.11.2.2,0,0,1-.11,0Z" transform="translate(10.47 0)"/><path class="cls-3" d="M397.52,80.31h0s-.06,0-.12.09a.17.17,0,0,1-.21,0c-.23,0-.35,0-.37-.09a2.06,2.06,0,0,1,0-.33q0-.84,0-11.12V28.63l0-.34c0-.06.15-.09.44-.09h.26s0,0,0,.09a12.86,12.86,0,0,1,0,1.43q0,1.43,0,10V68.86c0,7.64,0,11.45,0,11.45" transform="translate(10.47 0)"/><path class="cls-3" d="M141.29,57.74c0,.2.23.31.68.35.17,0,.26,0,.26.13a1.54,1.54,0,0,1,0,.16.67.67,0,0,1-.09.23.27.27,0,0,1-.19,0h-.17l-.5,0h-.94c-.69,0-1.13,0-1.33,0h-.11c-.07-.06-.11-.11-.11-.14a.52.52,0,0,1,.2-.43h.2a1.9,1.9,0,0,0,1.49-.62c.06,0,.94-1.3,2.65-3.77s2.57-3.7,2.6-3.74a.4.4,0,0,1,.35-.14h.37l.08.12.41,4c.28,2.66.42,4,.44,4s.37.14.95.14c.25,0,.37,0,.37.12a1,1,0,0,1-.05.17.9.9,0,0,1-.07.23.41.41,0,0,1-.2,0h-.21l-.57,0H146.7c-.91,0-1.51,0-1.79,0h-.18q-.09-.07-.09-.12s0-.09,0-.22a1.44,1.44,0,0,1,.09-.2l.06,0h.29a1.66,1.66,0,0,0,.94-.21L145.87,56h-3.48l-.5.71a3.82,3.82,0,0,0-.6,1m4.51-2.29c0-.1-.06-.74-.18-1.93s-.18-1.8-.2-1.8l-.4.53-.92,1.32-1.31,1.88h3" transform="translate(10.47 0)"/><path class="cls-3" d="M154.1,54.37c0-.11.07-.19.2-.25h9.32c.14.07.22.15.22.25s-.07.17-.21.24h-9.3c-.15,0-.23-.13-.23-.25m0,2.4c0-.13.08-.21.23-.25h9.3c.14.08.21.16.21.25s-.08.19-.22.24H154.3a.27.27,0,0,1-.2-.24" transform="translate(10.47 0)"/><path class="cls-4" d="M214.84,1.59l-.23.09a5.53,5.53,0,0,1-.73.18,7.52,7.52,0,0,1-1,.13h-.34V1.16h.34a6.52,6.52,0,0,0,1.58-.27,4,4,0,0,0,1-.44,4.3,4.3,0,0,0,.51-.4s.09,0,.21,0a.53.53,0,0,1,.31.11V5.52l0,5.43a.66.66,0,0,0,.22.16,1.89,1.89,0,0,0,.43.08c.23,0,.6,0,1.12,0h.47v.83h-.2c-.25,0-1.21-.05-2.87-.05s-2.59,0-2.84.05h-.22v-.83h1.16a2.83,2.83,0,0,0,.45,0l.29,0,.14,0s0,0,.11-.09.1-.08.11-.07Z" transform="translate(10.47 0)"/><path class="cls-4" d="M283.54,4.29a1,1,0,0,1-.78-.33,1.15,1.15,0,0,1-.29-.79,3,3,0,0,1,1-2.23A3.27,3.27,0,0,1,285.82,0a3.94,3.94,0,0,1,2.75,1,3.44,3.44,0,0,1,1.12,2.63,3.2,3.2,0,0,1-.36,1.48,5,5,0,0,1-.87,1.23c-.34.35-.82.8-1.45,1.34-.43.38-1,.93-1.81,1.67l-1.06,1,1.37,0a21.72,21.72,0,0,0,3-.09A4.84,4.84,0,0,0,289,8.69V8.63h.72v.06s-.09.58-.23,1.64-.24,1.62-.27,1.67v.05h-6.72v-.56a.5.5,0,0,1,.11-.27q.1-.15.54-.63l.91-1,.61-.67.62-.66.52-.6c.24-.28.41-.48.51-.62l.42-.54a3.49,3.49,0,0,0,.38-.58,5.27,5.27,0,0,1,.27-.52,2.12,2.12,0,0,0,.23-.58c.05-.2.09-.38.13-.55a2.6,2.6,0,0,0,0-.59,3.26,3.26,0,0,0-.61-2A2.07,2.07,0,0,0,285.4.85a1.82,1.82,0,0,0-1,.31,2,2,0,0,0-.63.6,1.2,1.2,0,0,0-.18.34s0,0,.09,0a1.12,1.12,0,0,1,.67.25,1,1,0,0,1,.34.83,1,1,0,0,1-.29.76,1.08,1.08,0,0,1-.81.33" transform="translate(10.47 0)"/><path class="cls-4" d="M360.37,4.73c0-.07,0-.17.05-.29a5.26,5.26,0,0,1,.22-.68,6,6,0,0,1,.36-.85,2,2,0,0,1,.6-.67,1.23,1.23,0,0,1,.83-.31,1.83,1.83,0,0,1,1.09.32,1.62,1.62,0,0,1,.54.62,1.56,1.56,0,0,1,.11.38s0,0,0,0l.19-.2a3.38,3.38,0,0,1,2.52-1.16,2.36,2.36,0,0,1,1.57.49,1.77,1.77,0,0,1,.62,1.43,8.83,8.83,0,0,1-.69,2.84,9.88,9.88,0,0,0-.69,2.3c0,.31.11.47.31.47l.17,0a1.51,1.51,0,0,0,.94-.69,4.48,4.48,0,0,0,.63-1.45c0-.09.14-.14.36-.14s.36,0,.36.14a1.91,1.91,0,0,1-.07.28,6.25,6.25,0,0,1-.4,1,3.49,3.49,0,0,1-.83,1,1.79,1.79,0,0,1-1.25.49,1.44,1.44,0,0,1-1.23-.49,1.65,1.65,0,0,1-.38-1A11.72,11.72,0,0,1,367,6.43a9.35,9.35,0,0,0,.67-2.75c0-.71-.26-1.06-.79-1.06h-.09a3.08,3.08,0,0,0-2.63,1.82l-.13.22-.59,2.43q-.6,2.37-.69,2.55a.82.82,0,0,1-.78.49.63.63,0,0,1-.38-.11.67.67,0,0,1-.2-.22.25.25,0,0,1,0-.18c0-.16.22-1.14.68-2.95s.7-2.79.73-2.95a3.08,3.08,0,0,0,0-.42c0-.47-.15-.7-.44-.7-.46,0-.84.6-1.14,1.81l-.11.38c0,.07-.14.11-.34.11h-.26c-.07-.08-.1-.13-.1-.17" transform="translate(10.47 0)"/><path class="cls-4" d="M161.27,35.61c0-.07,0-.17,0-.29s.1-.35.22-.69a6.58,6.58,0,0,1,.36-.85,2.34,2.34,0,0,1,.58-.67,1.18,1.18,0,0,1,.8-.31,4.24,4.24,0,0,1,.78.13,1,1,0,0,1,.54.33c.11.14.21.27.29.39A1,1,0,0,1,165,34l0,.12s0,0,0,0l.2-.2a3.39,3.39,0,0,1,2.55-1.16,4.6,4.6,0,0,1,.56,0,1.71,1.71,0,0,1,.47.13,1.87,1.87,0,0,1,.35.18l.27.21a.83.83,0,0,1,.18.24.77.77,0,0,0,.14.24c.08.08.1.15.08.21a.12.12,0,0,0,.05.16c.06,0,.07.1,0,.13l.14-.18a3.45,3.45,0,0,1,2.7-1.36,2.43,2.43,0,0,1,1.57.49,1.78,1.78,0,0,1,.62,1.43,9.63,9.63,0,0,1-.69,2.86,11.7,11.7,0,0,0-.69,2.32.6.6,0,0,0,.09.34.34.34,0,0,0,.27.09,1.23,1.23,0,0,0,.95-.54,4.25,4.25,0,0,0,.7-1.48c0-.14.07-.22.11-.24a.73.73,0,0,1,.29,0q.36,0,.36.15a2.51,2.51,0,0,1-.07.27,5.92,5.92,0,0,1-.4,1,3.55,3.55,0,0,1-.83,1,1.78,1.78,0,0,1-1.25.48,1.47,1.47,0,0,1-1.23-.48,1.68,1.68,0,0,1-.38-1,11.73,11.73,0,0,1,.65-2.17,9.84,9.84,0,0,0,.67-2.75c0-.71-.27-1.07-.8-1.07h-.09a3.07,3.07,0,0,0-2.62,1.83l-.13.22-.6,2.42c-.39,1.58-.62,2.43-.68,2.55a.81.81,0,0,1-.78.49.56.56,0,0,1-.38-.12,1.19,1.19,0,0,1-.2-.22.31.31,0,0,1-.05-.18c0-.14.2-1,.61-2.59l.65-2.64a3.27,3.27,0,0,0,.06-.69c0-.71-.27-1.07-.8-1.07h-.09A3.06,3.06,0,0,0,165,35.32l-.13.22-.6,2.42q-.6,2.37-.69,2.55a.78.78,0,0,1-.77.49.62.62,0,0,1-.58-.32.28.28,0,0,1,0-.18q0-.24.69-3c.47-1.86.7-2.83.7-2.92a2.25,2.25,0,0,0,.06-.49c0-.43-.15-.65-.45-.65s-.49.17-.67.51a4.55,4.55,0,0,0-.42,1.1,2.09,2.09,0,0,1-.22.66.7.7,0,0,1-.29,0h-.25c-.07-.07-.11-.12-.11-.16" transform="translate(10.47 0)"/><path class="cls-4" d="M163.71,71.28c0-.07,0-.17.06-.29a4.74,4.74,0,0,1,.21-.68,6,6,0,0,1,.36-.85,2,2,0,0,1,.6-.67,1.27,1.27,0,0,1,.83-.31,1.81,1.81,0,0,1,1.09.32,1.53,1.53,0,0,1,.54.62,1.19,1.19,0,0,1,.11.38s0,0,0,0l.2-.2a3.35,3.35,0,0,1,2.51-1.16,2.39,2.39,0,0,1,1.58.49,1.76,1.76,0,0,1,.61,1.43,8.49,8.49,0,0,1-.68,2.84,9.88,9.88,0,0,0-.69,2.3c0,.31.1.47.31.47l.16,0a1.48,1.48,0,0,0,.94-.69,4.27,4.27,0,0,0,.63-1.45c0-.09.15-.14.37-.14s.36.05.36.14,0,.11-.07.28a6.25,6.25,0,0,1-.4,1,3.54,3.54,0,0,1-.84,1,1.77,1.77,0,0,1-1.24.49,1.44,1.44,0,0,1-1.23-.49,1.59,1.59,0,0,1-.38-1,10.9,10.9,0,0,1,.65-2.18,10,10,0,0,0,.67-2.75c0-.71-.27-1.06-.8-1.06h-.09A3.07,3.07,0,0,0,167.48,71l-.13.22-.6,2.43q-.6,2.37-.69,2.55a.8.8,0,0,1-.77.49.61.61,0,0,1-.38-.11.57.57,0,0,1-.2-.22.26.26,0,0,1,0-.18c0-.16.23-1.14.69-3s.7-2.79.72-3a3.08,3.08,0,0,0,0-.42c0-.47-.14-.7-.43-.7-.46,0-.84.6-1.15,1.81-.07.24-.1.37-.1.38s-.14.11-.35.11h-.25c-.07-.08-.11-.13-.11-.17" transform="translate(10.47 0)"/></g><rect class="cls-5" y="44.36" width="4.24" height="5.81"/></svg>